<svg width="32" height="32" viewBox="0 0 32 32" fill="none" xmlns="http://www.w3.org/2000/svg">
<path d="M22.1998 6.38675H21.8265C21.6932 5.33341 21.3065 4.49341 20.6932 3.86675C19.8932 3.06675 18.7332 2.66675 17.2398 2.66675H9.79982C6.79982 2.66675 5.14648 4.32008 5.14648 7.32008C5.14648 8.81341 5.54648 9.97341 6.34648 10.7734C7.14648 11.5734 8.30648 11.9734 9.79982 11.9734H17.2398C19.9065 11.9734 21.5065 10.6534 21.8265 8.25342H22.1998C24.9865 8.25342 24.9865 8.62675 24.9865 11.0401V13.5201C24.9865 15.9334 24.9865 16.3067 22.1998 16.3067H17.2398C13.2532 16.3067 12.6798 18.2001 12.5998 20.0401C11.3998 20.1201 10.1065 20.6801 10.1065 22.8134V26.5334C10.1065 28.8401 11.6265 29.3201 12.8932 29.3201H14.1332C15.3998 29.3201 16.9198 28.8401 16.9198 26.5334V22.8134C16.9198 20.7067 15.6532 20.1201 14.4532 20.0401C14.5198 18.6934 14.9065 18.1601 17.2265 18.1601H22.1865C26.5198 18.1601 26.8398 16.4001 26.8398 13.5067V11.0401C26.8531 8.14675 26.5331 6.38675 22.1998 6.38675Z" fill="#D3001A"/>
</svg>
