<svg width="32" height="32" viewBox="0 0 32 32" fill="none" xmlns="http://www.w3.org/2000/svg">
<path d="M16.0003 25.3334C21.155 25.3334 25.3337 21.1547 25.3337 16.0001C25.3337 10.8454 21.155 6.66675 16.0003 6.66675C10.8457 6.66675 6.66699 10.8454 6.66699 16.0001C6.66699 21.1547 10.8457 25.3334 16.0003 25.3334Z" fill="#D3001A"/>
<path d="M15.9997 30.6133C15.2663 30.6133 14.6663 30.0666 14.6663 29.3333V29.2266C14.6663 28.4933 15.2663 27.8933 15.9997 27.8933C16.733 27.8933 17.333 28.4933 17.333 29.2266C17.333 29.9599 16.733 30.6133 15.9997 30.6133ZM25.5197 26.8533C25.173 26.8533 24.8397 26.7199 24.573 26.4666L24.3997 26.2933C23.8797 25.7733 23.8797 24.9333 24.3997 24.4133C24.9197 23.8933 25.7597 23.8933 26.2797 24.4133L26.453 24.5866C26.973 25.1066 26.973 25.9466 26.453 26.4666C26.1997 26.7199 25.8663 26.8533 25.5197 26.8533ZM6.47967 26.8533C6.13301 26.8533 5.79967 26.7199 5.53301 26.4666C5.01301 25.9466 5.01301 25.1066 5.53301 24.5866L5.70634 24.4133C6.22634 23.8933 7.06634 23.8933 7.58634 24.4133C8.10634 24.9333 8.10634 25.7733 7.58634 26.2933L7.41301 26.4666C7.15967 26.7199 6.81301 26.8533 6.47967 26.8533ZM29.333 17.3333H29.2263C28.493 17.3333 27.893 16.7333 27.893 15.9999C27.893 15.2666 28.493 14.6666 29.2263 14.6666C29.9597 14.6666 30.613 15.2666 30.613 15.9999C30.613 16.7333 30.0663 17.3333 29.333 17.3333ZM2.77301 17.3333H2.66634C1.93301 17.3333 1.33301 16.7333 1.33301 15.9999C1.33301 15.2666 1.93301 14.6666 2.66634 14.6666C3.39967 14.6666 4.05301 15.2666 4.05301 15.9999C4.05301 16.7333 3.50634 17.3333 2.77301 17.3333ZM25.3463 7.98659C24.9997 7.98659 24.6663 7.85325 24.3997 7.59992C23.8797 7.07992 23.8797 6.23992 24.3997 5.71992L24.573 5.54659C25.093 5.02659 25.933 5.02659 26.453 5.54659C26.973 6.06659 26.973 6.90659 26.453 7.42659L26.2797 7.59992C26.0263 7.85325 25.693 7.98659 25.3463 7.98659ZM6.65301 7.98659C6.30634 7.98659 5.97301 7.85325 5.70634 7.59992L5.53301 7.41325C5.01301 6.89325 5.01301 6.05325 5.53301 5.53325C6.05301 5.01325 6.89301 5.01325 7.41301 5.53325L7.58634 5.70659C8.10634 6.22659 8.10634 7.06659 7.58634 7.58659C7.33301 7.85325 6.98634 7.98659 6.65301 7.98659ZM15.9997 4.05325C15.2663 4.05325 14.6663 3.50659 14.6663 2.77325V2.66659C14.6663 1.93325 15.2663 1.33325 15.9997 1.33325C16.733 1.33325 17.333 1.93325 17.333 2.66659C17.333 3.39992 16.733 4.05325 15.9997 4.05325Z" fill="#D3001A"/>
</svg>
