<svg width="170" height="170" viewBox="0 0 170 170" fill="none" xmlns="http://www.w3.org/2000/svg">
<path d="M142.375 65.3083C129.554 65.3083 124.313 56.2417 130.688 45.1208C134.371 38.675 132.175 30.4583 125.729 26.775L113.475 19.7625C107.879 16.4333 100.654 18.4167 97.3253 24.0125L96.5462 25.3583C90.1712 36.4792 79.6878 36.4792 73.242 25.3583L72.4628 24.0125C69.2753 18.4167 62.0503 16.4333 56.4545 19.7625L44.2003 26.775C37.7545 30.4583 35.5587 38.7458 39.242 45.1917C45.6878 56.2417 40.4462 65.3083 27.6253 65.3083C20.2587 65.3083 14.167 71.3292 14.167 78.7667V91.2333C14.167 98.6 20.1878 104.692 27.6253 104.692C40.4462 104.692 45.6878 113.758 39.242 124.879C35.5587 131.325 37.7545 139.542 44.2003 143.225L56.4545 150.237C62.0503 153.567 69.2753 151.583 72.6045 145.988L73.3837 144.642C79.7587 133.521 90.242 133.521 96.6878 144.642L97.467 145.988C100.796 151.583 108.021 153.567 113.617 150.237L125.871 143.225C132.317 139.542 134.513 131.254 130.829 124.879C124.384 113.758 129.625 104.692 142.446 104.692C149.813 104.692 155.904 98.6708 155.904 91.2333V78.7667C155.834 71.4 149.813 65.3083 142.375 65.3083ZM85.0003 108.021C72.3212 108.021 61.9795 97.6792 61.9795 85C61.9795 72.3208 72.3212 61.9792 85.0003 61.9792C97.6795 61.9792 108.021 72.3208 108.021 85C108.021 97.6792 97.6795 108.021 85.0003 108.021Z" fill="#E8E8E8"/>
</svg>
