<svg width="32" height="32" viewBox="0 0 32 32" fill="none" xmlns="http://www.w3.org/2000/svg">
<path d="M17.667 16.7733V19.4133C17.667 20.3333 16.9203 21.08 16.0003 21.08C15.0803 21.08 14.3337 20.3333 14.3337 19.4133V16.7733C13.8537 16.48 13.4803 16.0533 13.2137 15.5466H4.00033C3.26699 15.5466 2.66699 16.1466 2.66699 16.88V21.5866C2.66699 25.8666 6.13366 29.3333 10.4137 29.3333H21.5737C25.867 29.3333 29.3337 25.8666 29.3337 21.5866V16.88C29.3337 16.1466 28.7337 15.5466 28.0003 15.5466H18.787C18.5203 16.0533 18.147 16.48 17.667 16.7733Z" fill="#D3001A"/>
<path d="M21.587 2.66675H10.4137C6.13366 2.66675 2.66699 6.13341 2.66699 10.4134V12.2134C2.66699 12.9467 3.26699 13.5467 4.00033 13.5467H12.8937C13.2003 11.7867 14.947 10.5334 16.8537 11.0401C17.9203 11.3201 18.787 12.1867 19.067 13.2534C19.0937 13.3467 19.0937 13.4534 19.107 13.5467H28.0003C28.7337 13.5467 29.3337 12.9467 29.3337 12.2134V10.4134C29.3337 6.13341 25.867 2.66675 21.587 2.66675Z" fill="#D3001A"/>
</svg>
