<svg width="57" height="261" viewBox="0 0 57 261" fill="none" xmlns="http://www.w3.org/2000/svg">
<path d="M42.2614 158.627V158.343H41.9787H29.9459H29.8372L29.7564 158.414L25.8564 161.945L22.4679 158.627L22.3851 158.546H22.2698H11.2747H11.1588L11.0766 158.631L5.47524 164.143L5.39063 164.224V164.342L5.39062 186.957V187.241H5.67332H41.9787H42.2614V186.957V179.951V179.668H41.9787H28.0787H22.2698H11.8684V167.656L13.5177 166.015H20.3382L21.9876 167.656V173.409V173.579L22.1374 173.655L27.9463 176.737L28.3614 176.954V176.486V168.847L31.6615 165.911H41.9787H42.2614V165.632V158.627Z" fill="white" stroke="white" stroke-width="1.19565"/>
<path d="M42.2614 1.56782V1.28419H41.9787L29.9459 1.28419H29.8372L29.7564 1.35511L25.8564 4.88637L22.4679 1.56782L22.3851 1.48749H22.2698H11.2747H11.1588L11.0766 1.57255L5.47524 7.07983L5.39063 7.16494V7.28312L5.39062 29.8984V30.182H5.67332L41.9787 30.182H42.2614V29.8984V22.8926V22.6089H41.9787L28.0787 22.6089H22.2698H11.8684V10.5969L13.5177 8.95654H20.3382L21.9876 10.5969V16.35V16.5154L22.1374 16.5958L27.9463 19.678L28.3614 19.8954V19.4274V11.7882L31.6615 8.85255L41.9787 8.85255H42.2614V8.57366V1.56782Z" fill="white" stroke="white" stroke-width="1.19565"/>
<path d="M5.67332 111.018H5.39063V111.301L5.39062 118.284V118.562H5.67332H36.133H36.2498L36.3329 118.482L42.1787 112.63L42.2614 112.549V112.431V93.3378V93.0542H41.9787H36.0143H35.7316V93.3378V108.531V111.018H33.2479H5.67332Z" fill="white" stroke="white" stroke-width="1.19565"/>
<path d="M5.67332 82.38H5.39063V82.6588L5.39062 89.641V89.9247H5.67332H36.133H36.2498L36.3329 89.8396L42.1787 83.992L42.2614 83.9069V83.7887V64.6952V64.4163H41.9787H36.0143H35.7316V64.6952V79.8934V82.38H33.2479H5.67332Z" fill="white" stroke="white" stroke-width="1.19565"/>
<path d="M11.9204 34.8237V34.54H11.6377H5.67332H5.39063V34.8237L5.39062 55.1415V55.2597L5.47335 55.34L11.3215 61.2018L11.4042 61.2822H11.5214H36.1335H36.2502L36.3329 61.2018L42.1787 55.3542L42.2614 55.2692V55.151V34.8237V34.54H41.9787H36.0143H35.7316V34.8237V51.2131V53.6855H33.2498H26.9611V36.327V36.0433H26.6784H20.8176H20.5354V36.327V53.6855H14.4117H11.9204V51.1943L11.9204 34.8237Z" fill="white" stroke="white" stroke-width="1.19565"/>
<path d="M11.4382 153.899L11.5209 153.979H11.6377H36.0143H36.1311L36.2138 153.899L42.1782 147.957L42.2614 147.871V147.753V129.152V129.033L42.1782 128.953L36.2138 123.011L36.1311 122.926H36.0143H11.6377H11.5209L11.4382 123.011L5.47382 128.953L5.39063 129.033V129.152L5.39062 147.753V147.871L5.47382 147.957L11.4382 153.899ZM35.8167 146.33H12.1095L12.1095 130.466H35.8167V146.33Z" fill="white" stroke="white" stroke-width="1.19565"/>
<path d="M56.6407 187.524H50.5742V185.099C50.5742 184.579 50.6607 184.13 50.8342 183.761C51.0077 183.383 51.2559 183.095 51.5797 182.896C51.903 182.693 52.2874 182.589 52.7322 182.589C53.1771 182.589 53.5614 182.693 53.8847 182.896C54.2085 183.095 54.4567 183.383 54.6302 183.761C54.8037 184.13 54.8902 184.579 54.8902 185.099V186.914L54.3617 186.428H56.6407V187.524ZM54.4827 186.428L53.9367 186.914V185.151C53.9367 184.664 53.8327 184.305 53.6247 184.064C53.4111 183.818 53.1137 183.695 52.7322 183.695C52.3451 183.695 52.0477 183.818 51.8397 184.064C51.6317 184.305 51.5277 184.664 51.5277 185.151V186.914L50.9727 186.428H54.4827Z" fill="white"/>
<path d="M56.6407 178.637L50.5742 181.214V180.027L56.0602 177.73V178.41L50.5742 176.089V174.992L56.6407 177.559V178.637Z" fill="white"/>
<path d="M56.7273 170.534C56.7273 170.983 56.6521 171.399 56.5018 171.787C56.3458 172.17 56.1293 172.501 55.8518 172.789C55.5686 173.068 55.2363 173.285 54.8553 173.441C54.4738 173.602 54.0578 173.678 53.6073 173.678C53.1563 173.678 52.7403 173.602 52.3593 173.441C51.9778 173.285 51.6483 173.063 51.3713 172.779C51.0881 172.491 50.8716 172.16 50.7213 171.777C50.5653 171.394 50.4873 170.978 50.4873 170.525C50.4873 170.042 50.5738 169.603 50.7473 169.201C50.9147 168.804 51.1661 168.468 51.5013 168.194L52.1858 168.898C51.949 169.111 51.7727 169.352 51.6573 169.617C51.5358 169.877 51.4753 170.165 51.4753 170.473C51.4753 170.78 51.5273 171.063 51.6313 171.323C51.7353 171.574 51.8823 171.796 52.0733 171.99C52.2638 172.174 52.4893 172.321 52.7493 172.425C53.0093 172.524 53.2953 172.576 53.6073 172.576C53.9193 172.576 54.2053 172.524 54.4653 172.425C54.7253 172.321 54.9503 172.174 55.1413 171.99C55.3318 171.796 55.4793 171.574 55.5833 171.323C55.6873 171.063 55.7393 170.78 55.7393 170.473C55.7393 170.165 55.6816 169.877 55.5658 169.617C55.4443 169.352 55.2623 169.111 55.0198 168.898L55.7133 168.194C56.0423 168.468 56.2938 168.804 56.4673 169.201C56.6403 169.603 56.7273 170.042 56.7273 170.534Z" fill="white"/>
<path d="M56.6407 161.075L50.5742 163.027V161.893L56.0602 160.149V160.711L50.5742 158.905V157.894L56.0602 156.135V156.683L50.5742 154.897V153.856L56.6407 155.809V156.967L51.6922 158.574V158.272L56.6407 159.907V161.075Z" fill="white"/>
<path d="M56.6407 151.786H50.5742V150.694H56.6407V151.786Z" fill="white"/>
<path d="M56.6407 147.919H50.5742V147.02L55.2457 143.324V143.773H50.5742V142.685H56.6407V143.588L51.9697 147.28V146.836H56.6407V147.919Z" fill="white"/>
<path d="M56.6407 139.93H50.5742V137.354C50.5742 136.716 50.7014 136.153 50.9557 135.671C51.21 135.189 51.5622 134.815 52.0127 134.546C52.4637 134.276 52.995 134.139 53.6077 134.139C54.2142 134.139 54.746 134.276 55.2022 134.546C55.6527 134.815 56.0054 135.189 56.2597 135.671C56.514 136.153 56.6407 136.716 56.6407 137.354V139.93ZM55.6877 138.838V137.406C55.6877 136.962 55.6007 136.583 55.4277 136.262C55.2542 135.936 55.0117 135.685 54.6997 135.515C54.3877 135.335 54.0237 135.246 53.6077 135.246C53.186 135.246 52.822 135.335 52.5157 135.515C52.2037 135.685 51.9607 135.936 51.7877 136.262C51.6142 136.583 51.5277 136.962 51.5277 137.406V138.838H55.6877Z" fill="white"/>
<path d="M56.7273 129.038C56.7273 129.502 56.6493 129.922 56.4933 130.31C56.3373 130.698 56.1203 131.033 55.8433 131.322C55.5601 131.605 55.2306 131.827 54.8553 131.983C54.4738 132.144 54.0578 132.22 53.6073 132.22C53.1563 132.22 52.7436 132.144 52.3678 131.983C51.9863 131.827 51.6573 131.605 51.3798 131.322C51.0966 131.033 50.8773 130.698 50.7213 130.31C50.5653 129.922 50.4873 129.502 50.4873 129.048C50.4873 128.589 50.5653 128.169 50.7213 127.786C50.8773 127.398 51.0966 127.062 51.3798 126.779C51.6573 126.49 51.9863 126.268 52.3678 126.112C52.7436 125.956 53.1563 125.876 53.6073 125.876C54.0578 125.876 54.4738 125.956 54.8553 126.112C55.2363 126.268 55.5658 126.49 55.8433 126.779C56.1203 127.062 56.3373 127.398 56.4933 127.786C56.6493 128.169 56.7273 128.585 56.7273 129.038ZM55.7393 129.048C55.7393 128.75 55.6873 128.476 55.5833 128.225C55.4793 127.97 55.3318 127.753 55.1413 127.568C54.9446 127.384 54.7196 127.242 54.4653 127.138C54.2053 127.034 53.9193 126.977 53.6073 126.977C53.2953 126.977 53.0121 127.034 52.7578 127.138C52.4978 127.242 52.2723 127.384 52.0818 127.568C51.8856 127.753 51.7353 127.97 51.6313 128.225C51.5273 128.476 51.4753 128.75 51.4753 129.048C51.4753 129.346 51.5273 129.62 51.6313 129.875C51.7353 130.121 51.8856 130.338 52.0818 130.532C52.2723 130.717 52.4978 130.863 52.7578 130.967C53.0121 131.066 53.2953 131.118 53.6073 131.118C53.9136 131.118 54.1963 131.066 54.4563 130.967C54.7163 130.863 54.9446 130.717 55.1413 130.532C55.3318 130.343 55.4793 130.126 55.5833 129.875C55.6873 129.62 55.7393 129.346 55.7393 129.048Z" fill="white"/>
<path d="M56.6407 122.34L50.5742 124.292V123.158L56.0602 121.413V121.976L50.5742 120.17V119.159L56.0602 117.4V117.948L50.5742 116.161V115.122L56.6407 117.074V118.232L51.6922 119.839V119.537L56.6407 121.172V122.34Z" fill="white"/>
<path d="M56.6407 110.257L50.5742 107.605V106.527L56.6407 103.87V105.014L51.1722 107.293V106.858L56.6407 109.131V110.257ZM55.2367 109.037L54.3527 108.744V105.562L55.2367 105.265V109.037Z" fill="white"/>
<path d="M56.6407 101.941H50.5742V101.043L55.2457 97.3465V97.7955H50.5742V96.7082H56.6407V97.6112L51.9697 101.303V100.859H56.6407V101.941Z" fill="white"/>
<path d="M56.6407 93.953H50.5742V91.3767C50.5742 90.7385 50.7014 90.1759 50.9557 89.6937C51.21 89.2116 51.5622 88.8381 52.0127 88.5686C52.4637 88.2992 52.995 88.1621 53.6077 88.1621C54.2142 88.1621 54.746 88.2992 55.2022 88.5686C55.6527 88.8381 56.0054 89.2116 56.2597 89.6937C56.514 90.1759 56.6407 90.7385 56.6407 91.3767V93.953ZM55.6877 92.861V91.4287C55.6877 90.9843 55.6007 90.6061 55.4277 90.2846C55.2542 89.9585 55.0117 89.7079 54.6997 89.5378C54.3877 89.3581 54.0237 89.2683 53.6077 89.2683C53.186 89.2683 52.822 89.3581 52.5157 89.5378C52.2037 89.7079 51.9607 89.9585 51.7877 90.2846C51.6142 90.6061 51.5277 90.9843 51.5277 91.4287V92.861H55.6877Z" fill="white"/>
<path d="M56.6407 82.3185H50.5742V79.7421C50.5742 79.104 50.7014 78.5415 50.9557 78.0593C51.21 77.5771 51.5622 77.2036 52.0127 76.9342C52.4637 76.6647 52.995 76.5276 53.6077 76.5276C54.2142 76.5276 54.746 76.6647 55.2022 76.9342C55.6527 77.2036 56.0054 77.5771 56.2597 78.0593C56.514 78.5415 56.6407 79.104 56.6407 79.7421V82.3185ZM55.6877 81.2265V79.7942C55.6877 79.3498 55.6007 78.9716 55.4277 78.6502C55.2542 78.324 55.0117 78.0735 54.6997 77.9033C54.3877 77.7237 54.0237 77.6338 53.6077 77.6338C53.186 77.6338 52.822 77.7237 52.5157 77.9033C52.2037 78.0735 51.9607 78.324 51.7877 78.6502C51.6142 78.9716 51.5277 79.3498 51.5277 79.7942V81.2265H55.6877Z" fill="white"/>
<path d="M56.7273 71.4276C56.7273 71.8909 56.6493 72.3117 56.4933 72.6993C56.3373 73.0869 56.1203 73.4226 55.8433 73.7109C55.5601 73.9946 55.2306 74.2167 54.8553 74.3727C54.4738 74.5334 54.0578 74.6091 53.6073 74.6091C53.1563 74.6091 52.7436 74.5334 52.3678 74.3727C51.9863 74.2167 51.6573 73.9946 51.3798 73.7109C51.0966 73.4226 50.8773 73.0869 50.7213 72.6993C50.5653 72.3117 50.4873 71.8909 50.4873 71.4371C50.4873 70.9785 50.5653 70.5578 50.7213 70.1749C50.8773 69.7873 51.0966 69.4516 51.3798 69.168C51.6573 68.8796 51.9863 68.6575 52.3678 68.5015C52.7436 68.3455 53.1563 68.2651 53.6073 68.2651C54.0578 68.2651 54.4738 68.3455 54.8553 68.5015C55.2363 68.6575 55.5658 68.8796 55.8433 69.168C56.1203 69.4516 56.3373 69.7873 56.4933 70.1749C56.6493 70.5578 56.7273 70.9738 56.7273 71.4276ZM55.7393 71.4371C55.7393 71.1393 55.6873 70.8651 55.5833 70.6146C55.4793 70.3593 55.3318 70.1418 55.1413 69.9575C54.9446 69.7731 54.7196 69.6313 54.4653 69.5273C54.2053 69.4233 53.9193 69.3665 53.6073 69.3665C53.2953 69.3665 53.0121 69.4233 52.7578 69.5273C52.4978 69.6313 52.2723 69.7731 52.0818 69.9575C51.8856 70.1418 51.7353 70.3593 51.6313 70.6146C51.5273 70.8651 51.4753 71.1393 51.4753 71.4371C51.4753 71.7349 51.5273 72.0091 51.6313 72.2644C51.7353 72.5102 51.8856 72.7276 52.0818 72.9215C52.2723 73.1058 52.4978 73.2524 52.7578 73.3564C53.0121 73.4557 53.2953 73.5076 53.6073 73.5076C53.9136 73.5076 54.1963 73.4557 54.4563 73.3564C54.7163 73.2524 54.9446 73.1058 55.1413 72.9215C55.3318 72.7324 55.4793 72.5149 55.5833 72.2644C55.6873 72.0091 55.7393 71.7349 55.7393 71.4371Z" fill="white"/>
<path d="M56.7273 63.1687C56.7273 63.6273 56.6493 64.0527 56.4933 64.4404C56.3373 64.828 56.1203 65.1636 55.8433 65.4473C55.5601 65.7356 55.2306 65.9578 54.8553 66.1138C54.4738 66.2698 54.0578 66.3502 53.6073 66.3502C53.1563 66.3502 52.7436 66.2698 52.3678 66.1138C51.9863 65.9578 51.6573 65.7356 51.3798 65.4473C51.0966 65.1636 50.8773 64.828 50.7213 64.4404C50.5653 64.0527 50.4873 63.632 50.4873 63.1782C50.4873 62.7149 50.5653 62.2942 50.7213 61.916C50.8773 61.5284 51.0966 61.1927 51.3798 60.9044C51.6573 60.6207 51.9863 60.3986 52.3678 60.2379C52.7436 60.0819 53.1563 60.0062 53.6073 60.0062C54.0578 60.0062 54.4738 60.0819 54.8553 60.2379C55.2363 60.3986 55.5658 60.6207 55.8433 60.9044C56.1203 61.1927 56.3373 61.5284 56.4933 61.916C56.6493 62.2942 56.7273 62.7149 56.7273 63.1687ZM55.7393 63.1782C55.7393 62.8804 55.6873 62.6062 55.5833 62.3509C55.4793 62.1004 55.3318 61.8829 55.1413 61.6938C54.9446 61.5095 54.7196 61.3677 54.4653 61.2684C54.2053 61.1597 53.9193 61.1077 53.6073 61.1077C53.2953 61.1077 53.0121 61.1597 52.7578 61.2684C52.4978 61.3677 52.2723 61.5095 52.0818 61.6938C51.8856 61.8829 51.7353 62.1004 51.6313 62.3509C51.5273 62.6062 51.4753 62.8804 51.4753 63.1782C51.4753 63.476 51.5273 63.7502 51.6313 64.0008C51.7353 64.2466 51.8856 64.4688 52.0818 64.6578C52.2723 64.8422 52.4978 64.9887 52.7578 65.0927C53.0121 65.1967 53.2953 65.2488 53.6073 65.2488C53.9136 65.2488 54.1963 65.1967 54.4563 65.0927C54.7163 64.9887 54.9446 64.8422 55.1413 64.6578C55.3318 64.4735 55.4793 64.2513 55.5833 64.0008C55.6873 63.7502 55.7393 63.476 55.7393 63.1782Z" fill="white"/>
<path d="M56.6407 57.6657H50.5742V55.2406C50.5742 54.7206 50.6607 54.2762 50.8342 53.9028C51.0077 53.5293 51.2559 53.2409 51.5797 53.0377C51.903 52.8344 52.2874 52.7351 52.7322 52.7351C53.1771 52.7351 53.5614 52.8344 53.8847 53.0377C54.2029 53.2409 54.4482 53.5293 54.6217 53.9028C54.789 54.2762 54.8727 54.7206 54.8727 55.2406V57.0606L54.3617 56.5737H56.6407V57.6657ZM56.6407 53.8129L54.4397 55.302V54.1297L56.6407 52.6359V53.8129ZM54.4827 56.5737L53.9457 57.0606V55.2926C53.9457 54.8104 53.8389 54.4512 53.6247 54.2101C53.4111 53.9595 53.1137 53.8366 52.7322 53.8366C52.3451 53.8366 52.0477 53.9595 51.8397 54.2101C51.6317 54.4512 51.5277 54.8104 51.5277 55.2926V57.0606L50.9727 56.5737H54.4827Z" fill="white"/>
<path d="M56.7273 45.0065C56.7273 45.465 56.6606 45.9047 56.5278 46.3254C56.3893 46.7461 56.213 47.0818 55.9993 47.3276L55.1238 46.9494C55.3143 46.713 55.4736 46.4199 55.6003 46.0748C55.7275 45.725 55.7913 45.3705 55.7913 45.0065C55.7913 44.6945 55.7563 44.4439 55.6873 44.2549C55.6178 44.0658 55.5256 43.9239 55.4098 43.8341C55.2883 43.7443 55.1526 43.7017 55.0023 43.7017C54.8175 43.7017 54.6705 43.7632 54.5603 43.8956C54.445 44.0232 54.3556 44.1887 54.2918 44.3967C54.2223 44.6 54.159 44.8269 54.1013 45.0821C54.0436 45.3279 53.977 45.5785 53.9018 45.829C53.821 46.0748 53.7198 46.3018 53.5983 46.5098C53.4716 46.713 53.3038 46.8785 53.0958 47.0061C52.8878 47.1337 52.6221 47.1999 52.2983 47.1999C51.9693 47.1999 51.6687 47.1148 51.3973 46.9494C51.1198 46.7745 50.9005 46.5145 50.7383 46.1647C50.571 45.8101 50.4873 45.3657 50.4873 44.8268C50.4873 44.4723 50.5336 44.1225 50.6258 43.7774C50.7185 43.4276 50.8513 43.1251 51.0243 42.8651L51.8998 43.2101C51.7381 43.4749 51.6195 43.749 51.5443 44.028C51.4635 44.3069 51.4233 44.5763 51.4233 44.8363C51.4233 45.1388 51.4607 45.3847 51.5358 45.5785C51.611 45.7629 51.7093 45.9 51.8303 45.9898C51.9518 46.0749 52.0903 46.1127 52.2463 46.1127C52.4316 46.1127 52.5815 46.0512 52.6973 45.9283C52.807 45.8007 52.8935 45.6352 52.9573 45.4319C53.0206 45.2239 53.0845 44.997 53.1478 44.7418C53.2055 44.4912 53.2721 44.2406 53.3473 43.9948C53.4225 43.7443 53.5203 43.5127 53.6418 43.3141C53.7633 43.1061 53.9278 42.9407 54.1358 42.8177C54.3438 42.6854 54.6067 42.624 54.9243 42.624C55.2481 42.624 55.5483 42.709 55.8258 42.8839C56.0976 43.0541 56.317 43.3141 56.4843 43.6639C56.6465 44.0185 56.7273 44.4676 56.7273 45.0065Z" fill="white"/>
<path d="M56.6407 39.0356H54.2402L54.9337 38.7898L50.5742 41.352V40.1796L54.0842 38.128V38.7851L50.5742 36.7146V35.6367L54.9337 38.1942L54.2402 37.9436H56.6407V39.0356Z" fill="white"/>
<path d="M56.7273 32.0398C56.7273 32.4983 56.6606 32.9379 56.5278 33.3586C56.3893 33.7794 56.213 34.115 55.9993 34.3608L55.1238 33.9827C55.3143 33.7463 55.4736 33.4579 55.6003 33.1081C55.7275 32.7583 55.7913 32.4038 55.7913 32.0398C55.7913 31.7325 55.7563 31.4819 55.6873 31.2928C55.6178 31.099 55.5256 30.9619 55.4098 30.8721C55.2883 30.7823 55.1526 30.735 55.0023 30.735C54.8175 30.735 54.6705 30.8012 54.5603 30.9289C54.445 31.0565 54.3556 31.2267 54.2918 31.4347C54.2223 31.6379 54.159 31.8648 54.1013 32.1154C54.0436 32.3612 53.977 32.6118 53.9018 32.8623C53.821 33.1128 53.7198 33.3397 53.5983 33.5477C53.4716 33.7463 53.3038 33.9118 53.0958 34.0441C52.8878 34.1718 52.6221 34.238 52.2983 34.238C51.9693 34.238 51.6687 34.1528 51.3973 33.9827C51.1198 33.8078 50.9005 33.5477 50.7383 33.2027C50.571 32.8481 50.4873 32.399 50.4873 31.8649C50.4873 31.5103 50.5336 31.1605 50.6258 30.8107C50.7185 30.4609 50.8513 30.1583 51.0243 29.903L51.8998 30.2481C51.7381 30.5128 51.6195 30.7823 51.5443 31.0612C51.4635 31.3448 51.4233 31.6143 51.4233 31.8696C51.4233 32.1721 51.4607 32.4227 51.5358 32.6117C51.611 32.7961 51.7093 32.9332 51.8303 33.023C51.9518 33.1081 52.0903 33.1507 52.2463 33.1507C52.4316 33.1507 52.5815 33.0892 52.6973 32.9663C52.807 32.8339 52.8935 32.6684 52.9573 32.4699C53.0206 32.2619 53.0845 32.0303 53.1478 31.7797C53.2055 31.5245 53.2721 31.2787 53.3473 31.0281C53.4225 30.7776 53.5203 30.5506 53.6418 30.3474C53.7633 30.1394 53.9278 29.9739 54.1358 29.851C54.3438 29.7234 54.6067 29.6572 54.9243 29.6572C55.2481 29.6572 55.5483 29.747 55.8258 29.9172C56.0976 30.0874 56.317 30.3474 56.4843 30.7019C56.6465 31.0565 56.7273 31.5009 56.7273 32.0398Z" fill="white"/>
<path d="M56.6407 26.2815H51.5277V28.2338H50.5742V23.2371H51.5277V25.1895H56.6407V26.2815Z" fill="white"/>
<path d="M53.0962 20.2264V17.3002H54.0237V20.2264H53.0962ZM55.6962 20.146V16.818H56.6407V21.238H50.5742V16.9362H51.5187V20.146H55.6962Z" fill="white"/>
<path d="M56.6407 14.4214H50.5742V13.5232L55.0027 10.9468V11.4196L50.5742 8.88575V7.98755L56.6407 7.97809V9.01333L52.2467 9.01807V8.80063L55.9477 10.9563V11.4432L52.2467 13.6319V13.3813H56.6407V14.4214Z" fill="white"/>
<path d="M56.7273 3.38257C56.7273 3.84111 56.6606 4.28071 56.5278 4.70144C56.3893 5.12216 56.213 5.4578 55.9993 5.70361L55.1238 5.32547C55.3143 5.0891 55.4736 4.79602 55.6003 4.45093C55.7275 4.10112 55.7913 3.74657 55.7913 3.38257C55.7913 3.07057 55.7563 2.82471 55.6873 2.63089C55.6178 2.4418 55.5256 2.30003 55.4098 2.21021C55.2883 2.1204 55.1526 2.07784 55.0023 2.07784C54.8175 2.07784 54.6705 2.13925 54.5603 2.27161C54.445 2.39925 54.3556 2.56946 54.2918 2.77746C54.2223 2.97601 54.159 3.20289 54.1013 3.45816C54.0436 3.70398 53.977 3.95456 53.9018 4.20511C53.821 4.45092 53.7198 4.67781 53.5983 4.88581C53.4716 5.08908 53.3038 5.25456 53.0958 5.38219C52.8878 5.51455 52.6221 5.57603 52.2983 5.57603C51.9693 5.57603 51.6687 5.49565 51.3973 5.32547C51.1198 5.15056 50.9005 4.89054 50.7383 4.54072C50.571 4.19091 50.4873 3.74184 50.4873 3.20293C50.4873 2.85311 50.5336 2.49852 50.6258 2.15343C50.7185 1.80361 50.8513 1.50111 51.0243 1.24583L51.8998 1.59091C51.7381 1.85091 51.6195 2.12508 51.5443 2.40399C51.4635 2.68763 51.4233 2.95712 51.4233 3.21239C51.4233 3.51494 51.4607 3.76073 51.5358 3.95455C51.611 4.13891 51.7093 4.276 51.8303 4.36582C51.9518 4.45091 52.0903 4.49346 52.2463 4.49346C52.4316 4.49346 52.5815 4.432 52.6973 4.30909C52.807 4.17673 52.8935 4.01125 52.9573 3.81271C53.0206 3.60471 53.0845 3.37309 53.1478 3.12254C53.2055 2.86727 53.2721 2.61674 53.3473 2.37093C53.4225 2.12038 53.5203 1.89344 53.6418 1.69017C53.7633 1.48217 53.9278 1.31675 54.1358 1.19384C54.3438 1.0662 54.6067 1.00001 54.9243 1.00001C55.2481 1.00001 55.5483 1.08512 55.8258 1.26003C56.0976 1.43021 56.317 1.69017 56.4843 2.04471C56.6465 2.39453 56.7273 2.84366 56.7273 3.38257Z" fill="white"/>
<path fill-rule="evenodd" clip-rule="evenodd" d="M56.7272 204.476V261H0L0 224.402L11.3454 204.476H56.7272ZM21.2316 213.524L9.92726 232.739L17.5741 245.739H13.5488L13.5488 251.957H47.0836V245.739H24.8172L17.1704 232.739L24.8172 219.74H40.8313V229.913H37.1369V236.13H47.0836V213.524H21.2316Z" fill="white"/>
</svg>
