<svg width="24" height="25" viewBox="0 0 24 25" fill="none" xmlns="http://www.w3.org/2000/svg">
<g clip-path="url(#clip0_216_2577)">
<path d="M21.5531 4.00826C21.4622 3.99887 21.3706 3.99887 21.2798 4.00826H2.6131C2.49346 4.01011 2.37462 4.02808 2.25977 4.0617L11.8931 13.6751L21.5531 4.00826Z" fill="#D3001A"/>
<path d="M22.5404 4.93701L12.8338 14.6239C12.584 14.8727 12.246 15.0124 11.8938 15.0124C11.5415 15.0124 11.2036 14.8727 10.9538 14.6239L1.33378 5.0105C1.3042 5.11942 1.28852 5.23166 1.28711 5.34453V18.7057C1.28711 19.0601 1.42759 19.3999 1.67763 19.6505C1.92768 19.901 2.26682 20.0418 2.62044 20.0418H21.2871C21.6407 20.0418 21.9799 19.901 22.2299 19.6505C22.48 19.3999 22.6204 19.0601 22.6204 18.7057V5.34453C22.6151 5.20534 22.5881 5.06784 22.5404 4.93701ZM3.53378 18.7057H2.60711V17.7504L7.45378 12.9337L8.39378 13.8756L3.53378 18.7057ZM21.2738 18.7057H20.3404L15.4804 13.8756L16.4204 12.9337L21.2671 17.7504L21.2738 18.7057Z" fill="#D3001A"/>
</g>
<defs>
<clipPath id="clip0_216_2577">
<rect width="24" height="24.0501" fill="white"/>
</clipPath>
</defs>
</svg>
