<svg width="1372" height="271" viewBox="0 0 1372 271" fill="none" xmlns="http://www.w3.org/2000/svg">
<path d="M211.81 270.191H213.899V268.127V180.276V179.483L213.377 178.892L187.361 150.419L211.81 125.68L212.402 125.076V124.234V43.9587V43.1131L211.775 42.5128L171.166 1.61763L170.574 1H169.703H3.08955H1V3.06377V268.127V270.191H3.08955H54.7035H56.7934V268.127V166.643V124.234V48.2937H145.289L157.375 60.3353V110.131L145.289 122.173H102.905H101.651L101.094 123.267L78.3862 165.677L76.7843 168.707H80.2322H136.513L158.141 192.801V268.127V270.191H160.196H211.81Z" fill="#D3001A" fill-opacity="0.08" stroke="#D3001A" stroke-opacity="0.08" stroke-width="1.19565"/>
<path d="M1368.91 270.191H1371V268.127V180.276V179.483L1370.48 178.892L1344.46 150.419L1368.91 125.68L1369.5 125.076V124.234V43.9587V43.1131L1368.87 42.5128L1328.3 1.61763L1327.67 1H1326.8H1160.19H1158.1V3.06377V268.127V270.191H1160.19H1211.8H1213.89V268.127V166.643V124.234V48.2937H1302.39L1314.47 60.3353V110.131L1302.39 122.173H1260H1258.79L1258.19 123.267L1235.49 165.677L1233.88 168.707H1237.33H1293.61L1315.24 192.801V268.127V270.191H1317.3H1368.91Z" fill="#1D1D1B" fill-opacity="0.08" stroke="#1D1D1B" stroke-opacity="0.08" stroke-width="1.19565"/>
<path d="M562.559 3.06377V1H560.469H509.029H506.975V3.06377V225.447V226.3L507.566 226.907L550.683 269.587L551.275 270.191H552.146H692.813H694.903V268.127V224.581V222.517H692.813H580.878H562.559V204.384V3.06377Z" fill="#D3001A" fill-opacity="0.08" stroke="#D3001A" stroke-opacity="0.08" stroke-width="1.19565"/>
<path d="M773.542 3.06377V1H771.488H720.048H717.958V3.06377V225.447V226.3L718.585 226.907L761.666 269.587L762.293 270.191H763.164H903.831H905.886V268.127V224.581V222.517H903.831H791.861H773.542V204.384V3.06377Z" fill="#1D1D1B" fill-opacity="0.08" stroke="#1D1D1B" stroke-opacity="0.08" stroke-width="1.19565"/>
<path d="M1123.9 48.6733H1125.99V46.6093V3.06377V1H1123.9H974.214H973.344L972.752 1.60394L929.566 44.3004L928.974 44.9045V45.7604V225.451V226.303L929.566 226.907L972.647 269.587L973.274 270.191H974.145H1123.9H1125.99V268.127V224.581V222.517H1123.9H1003.16H984.941V204.398V158.485H1112.83H1114.92V156.421V113.631V111.571H1112.83H984.941V66.8619V48.6733H1003.3H1123.9Z" fill="#1D1D1B" fill-opacity="0.08" stroke="#1D1D1B" stroke-opacity="0.08" stroke-width="1.19565"/>
<path d="M246.642 45.1529L246.05 45.7568V46.6093V224.581V225.434L246.642 226.038L290.42 269.583L291.047 270.191H291.918H428.963H429.834L430.425 269.583L474.204 226.038L474.83 225.434V224.581V46.6093V45.7568L474.204 45.1529L430.425 1.60731L429.834 1H428.963H291.918H291.047L290.42 1.60731L246.642 45.1529ZM302.4 223.139V50.0539H419.281V223.139H302.4Z" fill="#D3001A" fill-opacity="0.08" stroke="#D3001A" stroke-opacity="0.08" stroke-width="1.19565"/>
</svg>
