<svg width="64" height="64" viewBox="0 0 64 64" fill="none" xmlns="http://www.w3.org/2000/svg">
<path d="M22.373 49.3067V22.2133C22.373 21.1467 22.693 20.1067 23.2797 19.2267L30.5597 8.40002C31.7064 6.66668 34.5597 5.44002 36.9864 6.34668C39.5997 7.22668 41.333 10.16 40.773 12.7733L39.3864 21.4934C39.2797 22.2934 39.493 23.0133 39.9464 23.5733C40.3997 24.08 41.0664 24.4 41.7864 24.4H52.7464C54.853 24.4 56.6664 25.2533 57.733 26.7467C58.7464 28.1867 58.933 30.0533 58.2664 31.9467L51.7064 51.92C50.8797 55.2267 47.2797 57.92 43.7064 57.92H33.3064C31.5197 57.92 29.013 57.3067 27.8664 56.16L24.453 53.52C23.1464 52.5333 22.373 50.96 22.373 49.3067Z" fill="#E8C2CB"/>
<path d="M13.893 17.0133H11.1463C7.01301 17.0133 5.33301 18.6133 5.33301 22.56V49.3867C5.33301 53.3333 7.01301 54.9333 11.1463 54.9333H13.893C18.0263 54.9333 19.7063 53.3333 19.7063 49.3867V22.56C19.7063 18.6133 18.0263 17.0133 13.893 17.0133Z" fill="#E8C2CB"/>
</svg>
