<svg width="64" height="64" viewBox="0 0 64 64" fill="none" xmlns="http://www.w3.org/2000/svg">
<path d="M23.9997 5.33334C17.013 5.33334 11.333 11.0133 11.333 18C11.333 24.8533 16.693 30.4 23.6797 30.64C23.893 30.6133 24.1063 30.6133 24.2663 30.64C24.3197 30.64 24.3463 30.64 24.3997 30.64C24.4263 30.64 24.4263 30.64 24.453 30.64C31.2797 30.4 36.6397 24.8533 36.6663 18C36.6663 11.0133 30.9863 5.33334 23.9997 5.33334Z" fill="#E8C2CB"/>
<path d="M37.5466 37.7333C30.1066 32.7733 17.9732 32.7733 10.4799 37.7333C7.09323 40 5.22656 43.0667 5.22656 46.3467C5.22656 49.6267 7.09323 52.6667 10.4532 54.9067C14.1866 57.4133 19.0932 58.6667 23.9999 58.6667C28.9066 58.6667 33.8132 57.4133 37.5466 54.9067C40.9066 52.64 42.7732 49.6 42.7732 46.2933C42.7466 43.0133 40.9066 39.9733 37.5466 37.7333Z" fill="#E8C2CB"/>
<path d="M53.307 19.5733C53.7336 24.7467 50.0536 29.28 44.9603 29.8933C44.9336 29.8933 44.9336 29.8933 44.907 29.8933H44.827C44.667 29.8933 44.507 29.8933 44.3736 29.9467C41.787 30.08 39.4136 29.2533 37.627 27.7333C40.3736 25.28 41.947 21.6 41.627 17.6C41.4403 15.44 40.6936 13.4667 39.5736 11.7867C40.587 11.28 41.7603 10.96 42.9603 10.8533C48.187 10.4 52.8536 14.2933 53.307 19.5733Z" fill="#E8C2CC"/>
<path d="M58.64 44.24C58.4266 46.8267 56.7733 49.0667 54 50.5867C51.3333 52.0533 47.9733 52.7467 44.64 52.6667C46.56 50.9333 47.68 48.7733 47.8933 46.48C48.16 43.1733 46.5866 40 43.44 37.4667C41.6533 36.0533 39.5733 34.9333 37.3066 34.1067C43.2 32.4 50.6133 33.5467 55.1733 37.2267C57.6266 39.2 58.88 41.68 58.64 44.24Z" fill="#E8C2CC"/>
</svg>
