<svg width="64" height="64" viewBox="0 0 64 64" fill="none" xmlns="http://www.w3.org/2000/svg">
<path d="M43.173 5.33334H20.8263C11.1197 5.33334 5.33301 11.12 5.33301 20.8267V43.1467C5.33301 52.88 11.1197 58.6667 20.8263 58.6667H43.1463C52.853 58.6667 58.6397 52.88 58.6397 43.1733V20.8267C58.6663 11.12 52.8797 5.33334 43.173 5.33334ZM20.3463 48.4C20.3463 49.4933 19.4397 50.4 18.3463 50.4C17.253 50.4 16.3463 49.4933 16.3463 48.4V42.88C16.3463 41.7867 17.253 40.88 18.3463 40.88C19.4397 40.88 20.3463 41.7867 20.3463 42.88V48.4ZM33.9997 48.4C33.9997 49.4933 33.093 50.4 31.9997 50.4C30.9063 50.4 29.9997 49.4933 29.9997 48.4V37.3333C29.9997 36.24 30.9063 35.3333 31.9997 35.3333C33.093 35.3333 33.9997 36.24 33.9997 37.3333V48.4ZM47.653 48.4C47.653 49.4933 46.7463 50.4 45.653 50.4C44.5597 50.4 43.653 49.4933 43.653 48.4V31.8133C43.653 30.72 44.5597 29.8133 45.653 29.8133C46.7463 29.8133 47.653 30.72 47.653 31.8133V48.4ZM47.653 23.3867C47.653 24.48 46.7463 25.3867 45.653 25.3867C44.5597 25.3867 43.653 24.48 43.653 23.3867V20.8C36.853 27.7867 28.3463 32.72 18.8263 35.0933C18.6663 35.1467 18.5063 35.1467 18.3463 35.1467C17.4397 35.1467 16.6397 34.5333 16.3997 33.6267C16.133 32.56 16.773 31.4667 17.8663 31.2C26.853 28.96 34.853 24.24 41.1997 17.5733H37.8663C36.773 17.5733 35.8663 16.6667 35.8663 15.5733C35.8663 14.48 36.773 13.5733 37.8663 13.5733H45.6797C45.7863 13.5733 45.8663 13.6267 45.973 13.6267C46.1063 13.6533 46.2397 13.6533 46.373 13.7067C46.5063 13.76 46.613 13.84 46.7463 13.92C46.8263 13.9733 46.9063 14 46.9863 14.0533C47.013 14.08 47.013 14.1067 47.0397 14.1067C47.1463 14.2133 47.2263 14.32 47.3063 14.4267C47.3863 14.5333 47.4663 14.6133 47.493 14.72C47.5463 14.8267 47.5463 14.9333 47.573 15.0667C47.5997 15.2 47.653 15.3333 47.653 15.4933C47.653 15.52 47.6797 15.5467 47.6797 15.5733V23.3867H47.653Z" fill="#E8C2CB"/>
</svg>
