<svg width="52" height="260" viewBox="0 0 52 260" fill="none" xmlns="http://www.w3.org/2000/svg">
<g clip-path="url(#clip0_1032_4366)">
<path d="M35.2181 193.649C35.2181 193.975 34.9451 194.24 34.6081 194.24H0.627571C0.290681 194.24 0.0175781 193.975 0.0175781 193.649L0.0175781 178.626C0.0175781 175.504 0.537206 172.82 1.57647 170.575C2.61572 168.299 4.12432 166.542 6.10225 165.306C8.04667 164.07 10.3598 163.452 13.0418 163.452C15.6902 163.452 17.9867 164.07 19.9311 165.306C21.842 166.542 23.317 168.299 24.3563 170.575C25.362 172.82 25.8649 175.504 25.8649 178.626V187.383C25.8649 187.919 25.1899 188.179 24.8111 187.789L22.6612 185.577C22.2941 185.2 22.57 184.579 23.105 184.579H34.6081C34.9451 184.579 35.2181 184.844 35.2181 185.171V193.649ZM35.2181 172.8C35.2181 172.996 35.1186 173.179 34.9521 173.289L23.3489 180.971C22.9441 181.24 22.3951 180.958 22.3951 180.482V171.619C22.3951 171.424 22.4942 171.241 22.6599 171.131L34.2631 163.405C34.6679 163.135 35.2181 163.416 35.2181 163.892V172.8ZM21.2388 184.579C21.7873 184.579 22.0571 185.227 21.6629 185.597L19.2051 187.903C18.818 188.266 18.1711 188 18.1711 187.477V179.212C18.1711 177.195 17.7184 175.699 16.8133 174.723C15.9082 173.715 14.651 173.21 13.0418 173.21C11.3992 173.21 10.1252 173.715 9.21998 174.723C8.31488 175.699 7.86226 177.195 7.86226 179.212L7.86226 187.477C7.86226 188 7.21537 188.266 6.82826 187.903L4.37045 185.597C3.97621 185.227 4.24611 184.579 4.79449 184.579H21.2388Z" fill="white"/>
<path d="M35.3796 140.589C35.3796 143.251 34.9422 145.708 34.0675 147.959C33.1927 150.209 31.9615 152.175 30.374 153.855C28.7541 155.503 26.8749 156.787 24.7366 157.706C22.5982 158.625 20.2493 159.085 17.6898 159.085C15.1303 159.085 12.7814 158.625 10.643 157.706C8.50471 156.787 6.64179 155.503 5.05422 153.855C3.43429 152.175 2.18692 150.209 1.31216 147.959C0.437386 145.708 0 143.251 0 140.589C0 137.894 0.437386 135.437 1.31216 133.219C2.18692 130.968 3.43429 129.019 5.05422 127.37C6.64179 125.722 8.50471 124.438 10.643 123.519C12.7814 122.568 15.1303 122.092 17.6898 122.092C20.2493 122.092 22.6144 122.568 24.7852 123.519C26.9235 124.438 28.7864 125.722 30.374 127.37C31.9615 129.019 33.1927 130.968 34.0675 133.219C34.9422 135.437 35.3796 137.894 35.3796 140.589ZM27.4094 140.589C27.4094 139.32 27.1827 138.147 26.7291 137.07C26.2755 135.961 25.6275 135.009 24.7852 134.217C23.9104 133.393 22.8736 132.758 21.6748 132.315C20.4761 131.839 19.1478 131.602 17.6898 131.602C16.1994 131.602 14.8711 131.839 13.7047 132.315C12.506 132.758 11.4854 133.393 10.643 134.217C9.76824 135.009 9.10407 135.961 8.65046 137.07C8.19693 138.147 7.97017 139.32 7.97017 140.589C7.97017 141.856 8.19693 143.045 8.65046 144.155C9.10407 145.232 9.76824 146.183 10.643 147.008C11.4854 147.8 12.506 148.434 13.7047 148.909C14.8711 149.353 16.1994 149.575 17.6898 149.575C19.1478 149.575 20.4761 149.353 21.6748 148.909C22.8736 148.434 23.9104 147.8 24.7852 147.008C25.6275 146.183 26.2755 145.232 26.7291 144.155C27.1827 143.045 27.4094 141.856 27.4094 140.589Z" fill="white"/>
<path d="M35.2181 118.836C35.2181 119.162 34.9451 119.427 34.6081 119.427H0.627571C0.290681 119.427 0.0175781 119.162 0.0175781 118.836L0.0175781 110.358C0.0175781 110.031 0.290681 109.766 0.627571 109.766H26.7132C27.0501 109.766 27.3232 109.501 27.3232 109.174V93.9558C27.3232 93.6285 27.5963 93.364 27.9332 93.364H34.6081C34.9451 93.364 35.2181 93.6285 35.2181 93.9558V118.836Z" fill="white"/>
<path d="M35.2005 89.7473C35.2005 90.0746 34.9276 90.3391 34.5905 90.3391H0.609992C0.273102 90.3391 0 90.0746 0 89.7473L0 81.2701C0 80.9436 0.273102 80.6783 0.609992 80.6783H26.6956C27.0325 80.6783 27.3056 80.413 27.3056 80.0865V64.9732C27.3056 64.646 27.5787 64.3814 27.9156 64.3814H34.5905C34.9276 64.3814 35.2005 64.646 35.2005 64.9732V89.7473Z" fill="white"/>
<path d="M14.2552 52.5415C13.9183 52.5415 13.6452 52.2763 13.6452 51.9498L13.6452 37.2756C13.6452 36.9484 13.9183 36.6838 14.2552 36.6838H20.4776C20.8145 36.6838 21.0876 36.9484 21.0876 37.2756V51.9498C21.0876 52.2763 20.8145 52.5415 20.4776 52.5415H14.2552ZM26.9143 51.8583C27.2512 51.8583 27.5243 51.5938 27.5243 51.2665V34.4912C27.5243 34.1639 27.7974 33.8994 28.1343 33.8994H34.6081C34.9451 33.8994 35.2181 34.1639 35.2181 34.4912V60.8306C35.2181 61.1571 34.9451 61.4224 34.6081 61.4224H0.627571C0.290681 61.4224 0.0175781 61.1571 0.0175781 60.8306L0.0175781 35.2258C0.0175781 34.8993 0.290681 34.6341 0.627571 34.6341H7.10142C7.43832 34.6341 7.71142 34.8993 7.71142 35.2258L7.71142 51.2665C7.71142 51.5938 7.98454 51.8583 8.32141 51.8583H26.9143Z" fill="white"/>
<path d="M35.2005 30.3481C35.2005 30.6754 34.9276 30.9399 34.5905 30.9399L0.609992 30.9399C0.273102 30.9399 0 30.6754 0 30.3481L0 15.3263C0 12.2033 0.519629 9.51942 1.5589 7.27465C2.59814 4.99814 4.10675 3.24088 6.08468 2.00513C8.0291 0.769371 10.3423 0.151112 13.0242 0.151112C15.6726 0.151112 17.9691 0.769371 19.9135 2.00513C21.8244 3.24088 23.2995 4.99814 24.3387 7.27465C25.3444 9.51942 25.8473 12.2033 25.8473 15.3263V24.0824C25.8473 24.6183 25.1724 24.8783 24.7935 24.4891L22.6436 22.2768C22.2766 21.8989 22.5525 21.2791 23.0874 21.2791H34.5905C34.9276 21.2791 35.2005 21.5437 35.2005 21.8709V30.3481ZM35.2005 9.49977C35.2005 9.69477 35.1011 9.87843 34.9346 9.98878L23.3313 17.6709C22.9264 17.9392 22.3775 17.6573 22.3775 17.1819V8.31844C22.3775 8.12344 22.4766 7.94051 22.6424 7.83016L34.2456 0.104242C34.6503 -0.165583 35.2005 0.115572 35.2005 0.591734V9.49977ZM21.2213 21.2791C21.7697 21.2791 22.0396 21.9261 21.6453 22.2957L19.1875 24.6024C18.8003 24.966 18.1535 24.6992 18.1535 24.1769V15.9113C18.1535 13.8948 17.7009 12.3983 16.7957 11.4226C15.8905 10.4143 14.6334 9.90941 13.0242 9.90941C11.3815 9.90941 10.1076 10.4143 9.20242 11.4226C8.29724 12.3983 7.84469 13.8948 7.84469 15.9113L7.84469 24.1769C7.84469 24.6992 7.19779 24.966 6.81066 24.6024L4.35287 22.2957C3.95864 21.9261 4.22853 21.2791 4.77692 21.2791H21.2213Z" fill="white"/>
<path d="M13.6963 259.98C17.5453 253.491 21.3049 247.15 25.0689 240.811C28.9575 234.262 32.8505 227.716 36.7437 221.17C37.0698 220.622 37.4095 220.081 37.7481 219.54C39.1562 217.288 41.1564 216.12 43.9328 216.191C46.4956 216.258 49.0622 216.205 51.7568 216.205C51.461 216.735 51.2106 217.209 50.9373 217.67C43.4878 230.219 36.0367 242.768 28.5812 255.315C28.2147 255.931 27.8159 256.531 27.4144 257.127C26.1816 258.961 24.3908 259.904 22.1768 259.962C19.4077 260.035 16.6347 259.98 13.6963 259.98Z" fill="white"/>
<path d="M0 253.789C3.44633 247.98 6.81819 242.294 10.1931 236.609C13.2247 231.503 16.2586 226.399 19.2955 221.296C19.6011 220.782 19.8995 220.259 20.2648 219.786C22.3021 217.149 25.4343 216.913 27.8773 219.207C29.337 220.577 30.0736 222.403 31.2314 224.105C29.6716 224.437 28.9091 225.491 28.2285 226.638C23.7963 234.111 19.3619 241.581 14.9228 249.05C14.5359 249.7 14.1191 250.335 13.696 250.964C12.5202 252.714 10.8214 253.694 8.70186 253.765C5.85319 253.861 2.99897 253.789 0 253.789Z" fill="white"/>
<path d="M51.8496 253.802H34.1531C34.0878 253.286 34.4611 252.975 34.6707 252.617C36.2823 249.864 37.9317 247.132 39.5342 244.375C39.8538 243.824 40.2133 243.624 40.8779 243.618C44.0438 243.595 46.4808 244.714 48.0423 247.506C49.2056 249.586 50.5073 251.594 51.8496 253.802Z" fill="white"/>
<path d="M51.7602 194.302H45.5332V191.779C45.5332 191.236 45.6221 190.772 45.8001 190.387C45.978 189.995 46.2329 189.695 46.5651 189.484C46.8972 189.274 47.2916 189.169 47.7482 189.169C48.2049 189.169 48.5992 189.274 48.9314 189.484C49.2635 189.695 49.5184 189.995 49.6964 190.387C49.8743 190.772 49.9632 191.236 49.9632 191.779V193.671L49.4206 193.163H51.7602V194.302ZM49.5451 193.163L48.9847 193.671V191.832C48.9847 191.33 48.8779 190.953 48.6645 190.702C48.445 190.445 48.1396 190.316 47.7482 190.316C47.3509 190.316 47.0454 190.445 46.8319 190.702C46.6184 190.953 46.5117 191.33 46.5117 191.832V193.671L45.9423 193.163H49.5451Z" fill="white"/>
<path d="M51.7602 185.053L45.5332 187.733V186.498L51.1642 184.107V184.816L45.5332 182.399V181.261L51.7602 183.932V185.053Z" fill="white"/>
<path d="M51.8493 176.618C51.8493 177.085 51.7722 177.52 51.618 177.923C51.4579 178.32 51.2355 178.668 50.9508 178.965C50.6602 179.257 50.3192 179.485 49.9278 179.649C49.5364 179.812 49.1094 179.894 48.6468 179.894C48.1842 179.894 47.7573 179.812 47.3659 179.649C46.9744 179.485 46.6364 179.254 46.3517 178.956C46.0611 178.659 45.8387 178.312 45.6845 177.914C45.5244 177.517 45.4443 177.083 45.4443 176.61C45.4443 176.107 45.5333 175.649 45.7112 175.235C45.8832 174.82 46.1412 174.47 46.4852 174.183L47.1879 174.919C46.9448 175.141 46.7639 175.389 46.6453 175.663C46.5207 175.938 46.4585 176.235 46.4585 176.557C46.4585 176.878 46.5118 177.173 46.6186 177.442C46.7253 177.704 46.8766 177.934 47.0722 178.133C47.268 178.326 47.4992 178.478 47.7662 178.589C48.033 178.694 48.3266 178.746 48.6468 178.746C48.9671 178.746 49.2606 178.694 49.5275 178.589C49.7944 178.478 50.0257 178.326 50.2213 178.133C50.417 177.934 50.5683 177.704 50.675 177.442C50.7818 177.173 50.8352 176.878 50.8352 176.557C50.8352 176.235 50.7758 175.938 50.6572 175.663C50.5327 175.389 50.3459 175.141 50.0968 174.919L50.8085 174.183C51.1466 174.47 51.4045 174.82 51.5824 175.235C51.7603 175.649 51.8493 176.11 51.8493 176.618Z" fill="white"/>
<path d="M51.7602 166.775L45.5332 168.806V167.624L51.1642 165.811V166.398L45.5332 164.515V163.464L51.1642 161.633V162.203L45.5332 160.346V159.26L51.7602 161.292V162.501L46.6807 164.173V163.858L51.7602 165.557V166.775Z" fill="white"/>
<path d="M51.7602 157.106H45.5332V155.967H51.7602V157.106Z" fill="white"/>
<path d="M51.7602 153.084H45.5332V152.147L50.328 148.302V148.766H45.5332V147.636H51.7602V148.573L46.9654 152.418V151.954H51.7602V153.084Z" fill="white"/>
<path d="M51.7602 144.766H45.5332V142.087C45.5332 141.421 45.6637 140.837 45.9246 140.335C46.1855 139.833 46.5473 139.442 47.0099 139.161C47.4724 138.881 48.018 138.741 48.6466 138.741C49.2694 138.741 49.815 138.881 50.2835 139.161C50.7461 139.442 51.1078 139.833 51.3688 140.335C51.6297 140.837 51.7602 141.421 51.7602 142.087V144.766ZM50.7817 143.628V142.139C50.7817 141.678 50.6927 141.281 50.5148 140.948C50.3369 140.609 50.0878 140.349 49.7675 140.169C49.4473 139.982 49.0736 139.888 48.6466 139.888C48.2138 139.888 47.8401 139.982 47.5258 140.169C47.2056 140.349 46.9565 140.609 46.7786 140.948C46.6006 141.281 46.5117 141.678 46.5117 142.139V143.628H50.7817Z" fill="white"/>
<path d="M51.8493 133.432C51.8493 133.91 51.7692 134.352 51.6091 134.754C51.449 135.157 51.2266 135.507 50.9419 135.805C50.6513 136.103 50.3133 136.333 49.9278 136.497C49.5364 136.661 49.1094 136.742 48.6468 136.742C48.1842 136.742 47.7602 136.661 47.3747 136.497C46.9833 136.333 46.6453 136.103 46.3606 135.805C46.07 135.507 45.8447 135.157 45.6845 134.754C45.5244 134.352 45.4443 133.913 45.4443 133.44C45.4443 132.962 45.5244 132.524 45.6845 132.126C45.8447 131.724 46.07 131.374 46.3606 131.076C46.6453 130.778 46.9833 130.548 47.3747 130.384C47.7602 130.22 48.1842 130.139 48.6468 130.139C49.1094 130.139 49.5364 130.22 49.9278 130.384C50.3192 130.548 50.6572 130.778 50.9419 131.076C51.2266 131.374 51.449 131.724 51.6091 132.126C51.7692 132.524 51.8493 132.959 51.8493 133.432ZM50.8352 133.44C50.8352 133.131 50.7818 132.844 50.675 132.582C50.5683 132.319 50.417 132.092 50.2213 131.899C50.0197 131.706 49.7884 131.557 49.5275 131.452C49.2606 131.341 48.9671 131.286 48.6468 131.286C48.3266 131.286 48.036 131.341 47.7751 131.452C47.5081 131.557 47.2768 131.706 47.0812 131.899C46.8795 132.092 46.7253 132.319 46.6186 132.582C46.5118 132.844 46.4585 133.131 46.4585 133.44C46.4585 133.75 46.5118 134.036 46.6186 134.299C46.7253 134.556 46.8795 134.783 47.0812 134.982C47.2768 135.175 47.5081 135.327 47.7751 135.437C48.036 135.543 48.3266 135.595 48.6468 135.595C48.9611 135.595 49.2517 135.543 49.5186 135.437C49.7855 135.327 50.0197 135.175 50.2213 134.982C50.417 134.789 50.5683 134.562 50.675 134.299C50.7818 134.036 50.8352 133.75 50.8352 133.44Z" fill="white"/>
<path d="M51.7602 126.458L45.5332 128.489V127.307L51.1642 125.494V126.081L45.5332 124.198V123.147L51.1642 121.317V121.886L45.5332 120.029V118.943L51.7602 120.975V122.184L46.6807 123.856V123.541L51.7602 125.24V126.458Z" fill="white"/>
<path d="M51.7602 113.882L45.5332 111.123V110.001L51.7602 107.234V108.425L46.147 110.799V110.343L51.7602 112.708V113.882ZM50.3191 112.612L49.4117 112.305V108.994L50.3191 108.688V112.612Z" fill="white"/>
<path d="M51.7602 105.228H45.5332V104.291L50.328 100.446V100.91H45.5332V99.7804H51.7602V100.718L46.9654 104.562V104.098H51.7602V105.228Z" fill="white"/>
<path d="M51.7602 96.9111H45.5332V94.231C45.5332 93.5659 45.6637 92.9817 45.9246 92.4798C46.1855 91.9779 46.5473 91.5864 47.0099 91.306C47.4724 91.0256 48.018 90.8858 48.6466 90.8858C49.2694 90.8858 49.815 91.0256 50.2835 91.306C50.7461 91.5864 51.1078 91.9779 51.3688 92.4798C51.6297 92.9817 51.7602 93.5659 51.7602 94.231V96.9111ZM50.7817 95.7729V94.2839C50.7817 93.8229 50.6927 93.4253 50.5148 93.0928C50.3369 92.7542 50.0878 92.4942 49.7675 92.3135C49.4473 92.1268 49.0736 92.0331 48.6466 92.0331C48.2138 92.0331 47.8401 92.1268 47.5258 92.3135C47.2056 92.4942 46.9565 92.7542 46.7786 93.0928C46.6006 93.4253 46.5117 93.8229 46.5117 94.2839V95.7729H50.7817Z" fill="white"/>
<path d="M51.7602 84.8035H45.5332V82.1233C45.5332 81.4575 45.6637 80.874 45.9246 80.3714C46.1855 79.8695 46.5473 79.478 47.0099 79.1984C47.4724 78.9179 48.018 78.7774 48.6466 78.7774C49.2694 78.7774 49.815 78.9179 50.2835 79.1984C50.7461 79.478 51.1078 79.8695 51.3688 80.3714C51.6297 80.874 51.7602 81.4575 51.7602 82.1233V84.8035ZM50.7817 83.6645V82.1755C50.7817 81.7145 50.6927 81.3176 50.5148 80.9843C50.3369 80.6457 50.0878 80.3865 49.7675 80.2051C49.4473 80.0184 49.0736 79.9247 48.6466 79.9247C48.2138 79.9247 47.8401 80.0184 47.5258 80.2051C47.2056 80.3865 46.9565 80.6457 46.7786 80.9843C46.6006 81.3176 46.5117 81.7145 46.5117 82.1755V83.6645H50.7817Z" fill="white"/>
<path d="M51.8493 73.4676C51.8493 73.9468 51.7692 74.3874 51.6091 74.7903C51.449 75.1931 51.2266 75.5431 50.9419 75.8409C50.6513 76.1387 50.3133 76.3699 49.9278 76.5332C49.5364 76.6964 49.1094 76.7781 48.6468 76.7781C48.1842 76.7781 47.7602 76.6964 47.3747 76.5332C46.9833 76.3699 46.6453 76.1387 46.3606 75.8409C46.07 75.5431 45.8447 75.1931 45.6845 74.7903C45.5244 74.3874 45.4443 73.9491 45.4443 73.4767C45.4443 72.9975 45.5244 72.5599 45.6845 72.1631C45.8447 71.7595 46.07 71.4095 46.3606 71.1117C46.6453 70.814 46.9833 70.5834 47.3747 70.4202C47.7602 70.2562 48.1842 70.1745 48.6468 70.1745C49.1094 70.1745 49.5364 70.2562 49.9278 70.4202C50.3192 70.5834 50.6572 70.814 50.9419 71.1117C51.2266 71.4095 51.449 71.7595 51.6091 72.1631C51.7692 72.5599 51.8493 72.9945 51.8493 73.4676ZM50.8352 73.4767C50.8352 73.1668 50.7818 72.8811 50.675 72.6181C50.5683 72.3551 50.417 72.1275 50.2213 71.9348C50.0197 71.7421 49.7884 71.5932 49.5275 71.4881C49.2606 71.377 48.9671 71.3219 48.6468 71.3219C48.3266 71.3219 48.036 71.377 47.7751 71.4881C47.5081 71.5932 47.2768 71.7421 47.0812 71.9348C46.8795 72.1275 46.7253 72.3551 46.6186 72.6181C46.5118 72.8811 46.4585 73.1668 46.4585 73.4767C46.4585 73.7858 46.5118 74.0723 46.6186 74.3345C46.7253 74.5915 46.8795 74.819 47.0812 75.0178C47.2768 75.2105 47.5081 75.3624 47.7751 75.4735C48.036 75.5786 48.3266 75.6307 48.6468 75.6307C48.9611 75.6307 49.2517 75.5786 49.5186 75.4735C49.7855 75.3624 50.0197 75.2105 50.2213 75.0178C50.417 74.8251 50.5683 74.5976 50.675 74.3345C50.7818 74.0723 50.8352 73.7858 50.8352 73.4767Z" fill="white"/>
<path d="M51.8493 64.8692C51.8493 65.3484 51.7692 65.789 51.6091 66.1919C51.449 66.5947 51.2266 66.9454 50.9419 67.2432C50.6513 67.541 50.3133 67.7715 49.9278 67.9348C49.5364 68.0981 49.1094 68.1797 48.6468 68.1797C48.1842 68.1797 47.7602 68.0981 47.3747 67.9348C46.9833 67.7715 46.6453 67.541 46.3606 67.2432C46.07 66.9454 45.8447 66.5947 45.6845 66.1919C45.5244 65.789 45.4443 65.3514 45.4443 64.8783C45.4443 64.3991 45.5244 63.9615 45.6845 63.5647C45.8447 63.1618 46.07 62.8111 46.3606 62.5133C46.6453 62.2156 46.9833 61.985 47.3747 61.8218C47.7602 61.6578 48.1842 61.5761 48.6468 61.5761C49.1094 61.5761 49.5364 61.6578 49.9278 61.8218C50.3192 61.985 50.6572 62.2156 50.9419 62.5133C51.2266 62.8111 51.449 63.1618 51.6091 63.5647C51.7692 63.9615 51.8493 64.3961 51.8493 64.8692ZM50.8352 64.8783C50.8352 64.5684 50.7818 64.2827 50.675 64.0197C50.5683 63.7574 50.417 63.5292 50.2213 63.3364C50.0197 63.1437 49.7884 62.9948 49.5275 62.8898C49.2606 62.7794 48.9671 62.7235 48.6468 62.7235C48.3266 62.7235 48.036 62.7794 47.7751 62.8898C47.5081 62.9948 47.2768 63.1437 47.0812 63.3364C46.8795 63.5292 46.7253 63.7574 46.6186 64.0197C46.5118 64.2827 46.4585 64.5684 46.4585 64.8783C46.4585 65.1874 46.5118 65.4739 46.6186 65.7361C46.7253 65.9931 46.8795 66.2214 47.0812 66.4194C47.2768 66.6121 47.5081 66.764 47.7751 66.8752C48.036 66.9802 48.3266 67.0324 48.6468 67.0324C48.9611 67.0324 49.2517 66.9802 49.5186 66.8752C49.7855 66.764 50.0197 66.6121 50.2213 66.4194C50.417 66.2267 50.5683 65.9992 50.675 65.7361C50.7818 65.4739 50.8352 65.1874 50.8352 64.8783Z" fill="white"/>
<path d="M51.7602 59.1433H45.5332V56.6212C45.5332 56.0777 45.6221 55.6137 45.8001 55.2282C45.978 54.8374 46.2329 54.5366 46.5651 54.3265C46.8972 54.1164 47.2916 54.0113 47.7482 54.0113C48.2049 54.0113 48.5992 54.1164 48.9314 54.3265C49.2575 54.5366 49.5095 54.8374 49.6875 55.2282C49.8595 55.6137 49.9454 56.0777 49.9454 56.6212V58.513L49.4206 58.005H51.7602V59.1433ZM51.7602 55.1322L49.5007 56.6824V55.4648L51.7602 53.9063V55.1322ZM49.5451 58.005L48.9936 58.513V56.6733C48.9936 56.1714 48.8839 55.7951 48.6645 55.5441C48.445 55.2872 48.1396 55.1587 47.7482 55.1587C47.3509 55.1587 47.0454 55.2872 46.8319 55.5441C46.6184 55.7951 46.5117 56.1714 46.5117 56.6733V58.513L45.9423 58.005H49.5451Z" fill="white"/>
<path d="M51.8493 45.9647C51.8493 46.4432 51.7811 46.902 51.6447 47.3396C51.5023 47.7772 51.3215 48.1249 51.102 48.3818L50.2035 47.9873C50.3993 47.7424 50.5623 47.4386 50.6929 47.0766C50.8233 46.7145 50.8885 46.3442 50.8885 45.9647C50.8885 45.6435 50.8529 45.3835 50.7818 45.1848C50.7107 44.9867 50.6158 44.8409 50.4972 44.7471C50.3726 44.6534 50.2332 44.6073 50.079 44.6073C49.8893 44.6073 49.738 44.6738 49.6254 44.8083C49.5067 44.9429 49.4148 45.1175 49.3496 45.3336C49.2784 45.5438 49.2132 45.7803 49.1539 46.0434C49.0946 46.3003 49.0264 46.5603 48.9493 46.8226C48.8662 47.0796 48.7625 47.3161 48.6379 47.5323C48.5074 47.7424 48.3355 47.9147 48.122 48.0493C47.9085 48.1831 47.6356 48.2503 47.3035 48.2503C46.9655 48.2503 46.6571 48.1626 46.3784 47.9873C46.0937 47.8067 45.8684 47.5353 45.7023 47.1733C45.5303 46.8052 45.4443 46.3411 45.4443 45.7803C45.4443 45.413 45.4918 45.048 45.5867 44.6859C45.6816 44.3239 45.818 44.0087 45.9959 43.7396L46.8944 44.0986C46.7283 44.3738 46.6067 44.6564 46.5296 44.9482C46.4466 45.2407 46.4051 45.5211 46.4051 45.7894C46.4051 46.1046 46.4436 46.3615 46.5207 46.5603C46.5978 46.7531 46.6987 46.8959 46.8232 46.9889C46.9477 47.0766 47.0901 47.1204 47.2502 47.1204C47.4399 47.1204 47.5941 47.0562 47.7127 46.9277C47.8254 46.7939 47.9144 46.6215 47.9797 46.4114C48.0449 46.1953 48.1101 45.9557 48.1753 45.6927C48.2346 45.4304 48.3028 45.1704 48.3799 44.9134C48.457 44.6504 48.5579 44.4146 48.6824 44.2037C48.8069 43.9883 48.976 43.816 49.1895 43.6875C49.403 43.5529 49.6728 43.4857 49.9989 43.4857C50.3311 43.4857 50.6394 43.5764 50.9242 43.7578C51.2028 43.9324 51.4282 44.2037 51.6002 44.5718C51.7663 44.9399 51.8493 45.4039 51.8493 45.9647Z" fill="white"/>
<path d="M51.7602 39.7521H49.296L50.0077 39.4981L45.5332 42.1609V40.9433L49.136 38.8058V39.4891L45.5332 37.335V36.2134L50.0077 38.8761L49.296 38.6131H51.7602V39.7521Z" fill="white"/>
<path d="M51.8493 32.4699C51.8493 32.9483 51.7811 33.4071 51.6447 33.8447C51.5023 34.2823 51.3215 34.63 51.102 34.887L50.2035 34.4932C50.3993 34.2475 50.5623 33.9437 50.6929 33.5817C50.8233 33.2196 50.8885 32.8493 50.8885 32.4699C50.8885 32.1487 50.8529 31.8887 50.7818 31.6899C50.7107 31.4919 50.6158 31.346 50.4972 31.2523C50.3726 31.1585 50.2332 31.1124 50.079 31.1124C49.8893 31.1124 49.738 31.1797 49.6254 31.3135C49.5067 31.448 49.4148 31.6234 49.3496 31.8388C49.2784 32.0496 49.2132 32.2855 49.1539 32.5485C49.0946 32.8055 49.0264 33.0655 48.9493 33.3277C48.8662 33.5847 48.7625 33.8213 48.6379 34.0374C48.5074 34.2475 48.3355 34.4199 48.122 34.5544C47.9085 34.6882 47.6356 34.7555 47.3035 34.7555C46.9655 34.7555 46.6571 34.6678 46.3784 34.4932C46.0937 34.3118 45.8684 34.0405 45.7023 33.6784C45.5303 33.3103 45.4443 32.8463 45.4443 32.2855C45.4443 31.9181 45.4918 31.5531 45.5867 31.191C45.6816 30.829 45.818 30.5138 45.9959 30.2448L46.8944 30.6045C46.7283 30.8789 46.6067 31.1616 46.5296 31.4541C46.4466 31.7458 46.4051 32.0262 46.4051 32.2945C46.4051 32.6097 46.4436 32.8667 46.5207 33.0654C46.5978 33.2582 46.6987 33.401 46.8232 33.4948C46.9477 33.5817 47.0901 33.6255 47.2502 33.6255C47.4399 33.6255 47.5941 33.5613 47.7127 33.4328C47.8254 33.299 47.9144 33.1267 47.9797 32.9166C48.0449 32.7004 48.1101 32.4608 48.1753 32.1986C48.2346 31.9355 48.3028 31.6755 48.3799 31.4185C48.457 31.1563 48.5579 30.9197 48.6824 30.7096C48.8069 30.4934 48.976 30.3211 49.1895 30.1926C49.403 30.0581 49.6728 29.9908 49.9989 29.9908C50.3311 29.9908 50.6394 30.0815 50.9242 30.2629C51.2028 30.4375 51.4282 30.7096 51.6002 31.0769C51.7663 31.445 51.8493 31.9091 51.8493 32.4699Z" fill="white"/>
<path d="M51.7602 26.4777H46.5117V28.5093H45.5332V23.307H46.5117V25.3394H51.7602V26.4777Z" fill="white"/>
<path d="M48.1218 20.1757V17.1275H49.0736V20.1757H48.1218ZM50.7906 20.0881V16.6287H51.7602V21.2263H45.5332V16.7511H46.5028V20.0881H50.7906Z" fill="white"/>
<path d="M51.7602 14.1331H45.5332V13.1959L50.0789 10.5157V11.0063L45.5332 8.36998V7.43351L51.7602 7.42445V8.50147L47.25 8.51056V8.28306L51.0485 10.5248V11.0327L47.25 13.31V13.0469H51.7602V14.1331Z" fill="white"/>
<path d="M51.8493 2.6415C51.8493 3.12069 51.7811 3.57871 51.6447 4.01633C51.5023 4.4547 51.3215 4.80162 51.102 5.05859L50.2035 4.66482C50.3993 4.41918 50.5623 4.11611 50.6929 3.75407C50.8233 3.39204 50.8885 3.02092 50.8885 2.6415C50.8885 2.32028 50.8529 2.06028 50.7818 1.86225C50.7107 1.66347 50.6158 1.51761 50.4972 1.42389C50.3726 1.33093 50.2332 1.28407 50.079 1.28407C49.8893 1.28407 49.738 1.35133 49.6254 1.48587C49.5067 1.61965 49.4148 1.795 49.3496 2.01117C49.2784 2.22128 49.2132 2.45784 49.1539 2.72011C49.0946 2.97709 49.0264 3.2371 48.9493 3.50012C48.8662 3.7571 48.7625 3.9929 48.6379 4.20906C48.5074 4.41918 48.3355 4.5915 48.122 4.72603C47.9085 4.86057 47.6356 4.92783 47.3035 4.92783C46.9655 4.92783 46.6571 4.84017 46.3784 4.66482C46.0937 4.48342 45.8684 4.21208 45.7023 3.85005C45.5303 3.48272 45.4443 3.01791 45.4443 2.45785C45.4443 2.08977 45.4918 1.72471 45.5867 1.36268C45.6816 1.00064 45.818 0.685461 45.9959 0.417147L46.8944 0.776163C46.7283 1.05052 46.6067 1.33395 46.5296 1.62569C46.4466 1.91744 46.4051 2.19784 46.4051 2.46616C46.4051 2.78209 46.4436 3.0383 46.5207 3.23708C46.5978 3.42981 46.6987 3.57268 46.8232 3.6664C46.9477 3.75407 47.0901 3.7979 47.2502 3.7979C47.4399 3.7979 47.5941 3.73365 47.7127 3.60516C47.8254 3.47063 47.9144 3.29831 47.9797 3.08819C48.0449 2.87203 48.1101 2.63318 48.1753 2.37016C48.2346 2.10714 48.3028 1.84715 48.3799 1.59093C48.457 1.32791 48.5579 1.09132 48.6824 0.881204C48.8069 0.665041 48.976 0.492723 49.1895 0.364234C49.403 0.230455 49.6728 0.163195 49.9989 0.163195C50.3311 0.163195 50.6394 0.253143 50.9242 0.434538C51.2028 0.609887 51.4282 0.881227 51.6002 1.24931C51.7663 1.61663 51.8493 2.08069 51.8493 2.6415Z" fill="white"/>
</g>
<defs>
<clipPath id="clip0_1032_4366">
<rect width="260" height="52" fill="white" transform="matrix(0 -1 1 0 0 260)"/>
</clipPath>
</defs>
</svg>
