<?xml version="1.0" standalone="no"?>
<!DOCTYPE svg PUBLIC "-//W3C//DTD SVG 20010904//EN"
 "http://www.w3.org/TR/2001/REC-SVG-20010904/DTD/svg10.dtd">
<svg version="1.0" xmlns="http://www.w3.org/2000/svg"
 width="800.000000pt" height="800.000000pt" viewBox="0 0 800.000000 800.000000"
 preserveAspectRatio="xMidYMid meet">
<metadata>
Created by potrace 1.14, written by Peter Selinger 2001-2017
</metadata>
<g transform="translate(0.000000,800.000000) scale(0.100000,-0.100000)"
fill="#000000" stroke="none">
<path d="M10 4002 l0 -3997 3983 0 3982 0 0 3193 c0 1756 -2 3197 -5 3202 -3
4 -37 27 -77 49 -39 22 -89 50 -110 62 -21 12 -63 35 -93 52 -30 17 -67 38
-82 49 -14 10 -29 18 -32 18 -2 0 -33 17 -68 37 -35 20 -65 36 -67 34 -2 -1
-7 1 -10 6 -3 5 -116 71 -251 147 -135 77 -288 165 -340 195 -52 31 -98 56
-102 56 -4 0 -13 6 -20 13 -6 6 -16 12 -20 12 -4 0 -36 17 -70 38 -35 21 -88
52 -118 69 -30 16 -83 47 -117 67 -34 20 -66 36 -72 36 -6 0 -11 4 -11 9 0 5
-12 14 -27 20 -16 5 -50 23 -78 39 -27 16 -106 62 -175 101 -69 39 -136 78
-150 87 -14 8 -37 21 -52 27 -16 6 -28 15 -28 19 0 4 -4 8 -10 8 -5 0 -63 32
-129 70 -66 39 -125 70 -131 70 -5 0 -10 5 -10 10 0 6 -5 10 -11 10 -6 0 -47
22 -92 48 -45 27 -89 51 -97 55 -8 4 -22 11 -30 17 -8 5 -39 23 -68 40 l-53
30 -2579 0 -2580 0 0 -3998z"/>
</g>
</svg>
