<svg width="32" height="32" viewBox="0 0 32 32" fill="none" xmlns="http://www.w3.org/2000/svg">
<path d="M7.6538 21.3334C7.80046 20.68 7.5338 19.7467 7.06713 19.28L3.82713 16.04C2.8138 15.0267 2.4138 13.9467 2.70713 13.0134C3.0138 12.08 3.96046 11.44 5.3738 11.2L9.5338 10.5067C10.1338 10.4 10.8671 9.86669 11.1471 9.32002L13.4405 4.72002C14.1071 3.40002 15.0138 2.66669 16.0005 2.66669C16.9871 2.66669 17.8938 3.40002 18.5605 4.72002L20.8538 9.32002C21.0271 9.66669 21.3871 10 21.7738 10.2267L7.4138 24.5867C7.22713 24.7734 6.90713 24.6 6.96046 24.3334L7.6538 21.3334Z" fill="#D3001A"/>
<path d="M24.9334 19.28C24.4534 19.76 24.1867 20.68 24.3467 21.3334L25.2667 25.3467C25.6534 27.0134 25.4134 28.2667 24.5867 28.8667C24.2534 29.1067 23.8534 29.2267 23.3867 29.2267C22.7067 29.2267 21.9067 28.9734 21.0267 28.4534L17.1201 26.1334C16.5067 25.7734 15.4934 25.7734 14.8801 26.1334L10.9734 28.4534C9.4934 29.32 8.22673 29.4667 7.4134 28.8667C7.10673 28.64 6.88007 28.3334 6.7334 27.9334L22.9467 11.72C23.5601 11.1067 24.4267 10.8267 25.2667 10.9734L26.6134 11.2C28.0267 11.44 28.9734 12.08 29.2801 13.0134C29.5734 13.9467 29.1734 15.0267 28.1601 16.04L24.9334 19.28Z" fill="#D3001A"/>
</svg>
