<svg width="32" height="32" viewBox="0 0 32 32" fill="none" xmlns="http://www.w3.org/2000/svg">
<path d="M26.8003 12.2933C24.387 12.2933 23.4003 10.5867 24.6003 8.49333C25.2937 7.28 24.8803 5.73333 23.667 5.04L21.3603 3.72C20.307 3.09333 18.947 3.46666 18.3203 4.52L18.1737 4.77333C16.9737 6.86666 15.0003 6.86666 13.787 4.77333L13.6403 4.52C13.0403 3.46666 11.6803 3.09333 10.627 3.72L8.32033 5.04C7.10699 5.73333 6.69366 7.29333 7.38699 8.50666C8.60033 10.5867 7.61366 12.2933 5.20033 12.2933C3.81366 12.2933 2.66699 13.4267 2.66699 14.8267V17.1733C2.66699 18.56 3.80033 19.7067 5.20033 19.7067C7.61366 19.7067 8.60033 21.4133 7.38699 23.5067C6.69366 24.72 7.10699 26.2667 8.32033 26.96L10.627 28.28C11.6803 28.9067 13.0403 28.5333 13.667 27.48L13.8137 27.2267C15.0137 25.1333 16.987 25.1333 18.2003 27.2267L18.347 27.48C18.9737 28.5333 20.3337 28.9067 21.387 28.28L23.6937 26.96C24.907 26.2667 25.3203 24.7067 24.627 23.5067C23.4137 21.4133 24.4003 19.7067 26.8137 19.7067C28.2003 19.7067 29.347 18.5733 29.347 17.1733V14.8267C29.3337 13.44 28.2003 12.2933 26.8003 12.2933ZM16.0003 20.3333C13.6137 20.3333 11.667 18.3867 11.667 16C11.667 13.6133 13.6137 11.6667 16.0003 11.6667C18.387 11.6667 20.3337 13.6133 20.3337 16C20.3337 18.3867 18.387 20.3333 16.0003 20.3333Z" fill="#B7B7B7"/>
</svg>
