<svg width="32" height="31" viewBox="0 0 32 31" fill="none" xmlns="http://www.w3.org/2000/svg">
<path d="M18.667 3.76732V14.403C18.667 15.7085 17.5603 16.7708 16.2003 16.7708H4.00033C3.26699 16.7708 2.66699 16.1948 2.66699 15.4909V7.31255C2.66699 4.70162 4.86699 2.58984 7.58699 2.58984H17.427C18.1203 2.58984 18.667 3.11459 18.667 3.76732Z" fill="#D3001A"/>
<path d="M28.667 19.868C29.0403 19.868 29.3337 20.1496 29.3337 20.508V21.7878C29.3337 23.9124 27.547 25.6274 25.3337 25.6274C25.3337 23.5157 23.5337 21.7878 21.3337 21.7878C19.1337 21.7878 17.3337 23.5157 17.3337 25.6274H14.667C14.667 23.5157 12.867 21.7878 10.667 21.7878C8.46699 21.7878 6.66699 23.5157 6.66699 25.6274C4.45366 25.6274 2.66699 23.9124 2.66699 21.7878V19.2281C2.66699 18.5242 3.26699 17.9482 4.00033 17.9482H16.667C18.507 17.9482 20.0003 16.5148 20.0003 14.7486V7.70931C20.0003 7.00538 20.6003 6.42944 21.3337 6.42944H22.4537C23.4137 6.42944 24.2937 6.92859 24.7737 7.72211L25.627 9.15556C25.747 9.36034 25.587 9.62911 25.3337 9.62911C23.4937 9.62911 22.0003 11.0626 22.0003 12.8288V16.6684C22.0003 18.4346 23.4937 19.868 25.3337 19.868H28.667Z" fill="#D3001A"/>
<path d="M10.6667 28.1871C12.1394 28.1871 13.3333 27.0411 13.3333 25.6274C13.3333 24.2137 12.1394 23.0676 10.6667 23.0676C9.19391 23.0676 8 24.2137 8 25.6274C8 27.0411 9.19391 28.1871 10.6667 28.1871Z" fill="#D3001A"/>
<path d="M21.3337 28.1871C22.8064 28.1871 24.0003 27.0411 24.0003 25.6274C24.0003 24.2137 22.8064 23.0676 21.3337 23.0676C19.8609 23.0676 18.667 24.2137 18.667 25.6274C18.667 27.0411 19.8609 28.1871 21.3337 28.1871Z" fill="#D3001A"/>
<path d="M29.3333 16.0668V17.9482H25.3333C24.6 17.9482 24 17.3722 24 16.6683V12.8287C24 12.1248 24.6 11.5488 25.3333 11.5488H27.0533L28.9867 14.7997C29.2133 15.1836 29.3333 15.6188 29.3333 16.0668Z" fill="#D3001A"/>
</svg>
