<svg width="32" height="32" viewBox="0 0 32 32" fill="none" xmlns="http://www.w3.org/2000/svg">
<path d="M28.3337 24.6267L26.1337 25.1467C25.6403 25.2667 25.2537 25.6401 25.147 26.1334L24.6803 28.0934C24.427 29.1601 23.067 29.4934 22.3603 28.6534L18.3737 24.0667C18.0537 23.6934 18.227 23.1067 18.707 22.9867C21.067 22.4134 23.187 21.0934 24.747 19.2134C25.0003 18.9067 25.4537 18.8667 25.7337 19.1467L28.6937 22.1067C29.707 23.1201 29.347 24.3867 28.3337 24.6267Z" fill="#D3001A"/>
<path d="M3.60022 24.6267L5.80022 25.1467C6.29355 25.2667 6.68022 25.6401 6.78688 26.1334L7.25355 28.0934C7.50688 29.1601 8.86688 29.4934 9.57355 28.6534L13.5602 24.0667C13.8802 23.6934 13.7069 23.1067 13.2269 22.9867C10.8669 22.4134 8.74688 21.0934 7.18688 19.2134C6.93355 18.9067 6.48022 18.8667 6.20022 19.1467L3.24022 22.1067C2.22688 23.1201 2.58688 24.3867 3.60022 24.6267Z" fill="#D3001A"/>
<path d="M16.0003 2.66675C10.8403 2.66675 6.66699 6.84008 6.66699 12.0001C6.66699 13.9334 7.24033 15.7067 8.22699 17.1867C9.66699 19.3201 11.947 20.8267 14.6003 21.2134C15.0537 21.2934 15.5203 21.3334 16.0003 21.3334C16.4803 21.3334 16.947 21.2934 17.4003 21.2134C20.0537 20.8267 22.3337 19.3201 23.7737 17.1867C24.7603 15.7067 25.3337 13.9334 25.3337 12.0001C25.3337 6.84008 21.1603 2.66675 16.0003 2.66675ZM20.0803 11.7067L18.9737 12.8134C18.787 13.0001 18.6803 13.3601 18.747 13.6267L19.067 15.0001C19.3203 16.0801 18.747 16.5067 17.787 15.9334L16.4537 15.1467C16.2137 15.0001 15.8137 15.0001 15.5737 15.1467L14.2403 15.9334C13.2803 16.4934 12.707 16.0801 12.9603 15.0001L13.2803 13.6267C13.3337 13.3734 13.2403 13.0001 13.0537 12.8134L11.9203 11.7067C11.267 11.0534 11.4803 10.4001 12.387 10.2534L13.8137 10.0134C14.0537 9.97342 14.3337 9.76008 14.4403 9.54675L15.227 7.97341C15.6537 7.12008 16.347 7.12008 16.7737 7.97341L17.5603 9.54675C17.667 9.76008 17.947 9.97342 18.2003 10.0134L19.627 10.2534C20.5203 10.4001 20.7337 11.0534 20.0803 11.7067Z" fill="#D3001A"/>
</svg>
