<svg width="40" height="40" viewBox="0 0 40 40" fill="none" xmlns="http://www.w3.org/2000/svg">
<path d="M13.483 19.3834H5.66634C5.79967 11.6 7.33301 10.3167 12.1163 7.48337C12.6663 7.15003 12.8497 6.45003 12.5163 5.88337C12.1997 5.33337 11.483 5.15003 10.933 5.48337C5.29967 8.8167 3.33301 10.85 3.33301 20.5334V29.5167C3.33301 32.3667 5.64967 34.6667 8.48301 34.6667H13.483C16.4163 34.6667 18.633 32.45 18.633 29.5167V24.5167C18.633 21.6 16.4163 19.3834 13.483 19.3834Z" fill="#D0D0D0"/>
<path d="M31.5163 19.3834H23.6996C23.8329 11.6 25.3663 10.3167 30.1496 7.48337C30.6996 7.15003 30.8829 6.45003 30.5496 5.88337C30.2163 5.33337 29.5163 5.15003 28.9496 5.48337C23.3163 8.8167 21.3496 10.85 21.3496 20.55V29.5334C21.3496 32.3834 23.6663 34.6834 26.4996 34.6834H31.4996C34.4329 34.6834 36.6496 32.4667 36.6496 29.5334V24.5334C36.6663 21.6 34.4496 19.3834 31.5163 19.3834Z" fill="#D0D0D0"/>
</svg>
