<svg width="20" height="34" viewBox="0 0 20 34" fill="none" xmlns="http://www.w3.org/2000/svg">
<path d="M9.97634 17.5685C5.26801 17.5685 1.35468 13.6585 1.35468 9.03183C1.35468 4.24516 5.26801 0.333496 9.97801 0.333496C14.848 0.333496 18.5997 4.2435 18.5997 9.03183C18.5913 11.3036 17.6812 13.4791 16.0696 15.0801C14.4579 16.6812 12.2764 17.5768 10.0047 17.5702L9.97634 17.5685ZM9.97634 5.36183C7.98301 5.36183 6.46634 7.03683 6.46634 9.0335C6.46634 11.0268 7.98301 12.5435 9.97801 12.5435C12.053 12.5435 13.4897 11.0268 13.4897 9.0335C13.4913 7.03516 12.053 5.36183 9.97634 5.36183ZM13.4097 24.6718L18.2813 29.3802C19.2397 30.4152 19.2397 31.9318 18.2813 32.8902C17.2447 33.9252 15.6463 33.9252 14.848 32.8902L9.97801 28.1018L5.26801 32.8902C4.78968 33.3685 4.14967 33.6068 3.42967 33.6068C2.87134 33.6068 2.23301 33.3668 1.67301 32.8902C0.714675 31.9318 0.714675 30.4152 1.67301 29.3785L6.62301 24.6702C4.8354 24.1408 3.12057 23.3912 1.51801 22.4385C0.319675 21.8002 0.081342 20.2052 0.719675 19.0068C1.51801 17.8102 2.95468 17.4918 4.23301 18.2902C5.964 19.3465 7.95264 19.9054 9.98051 19.9054C12.0084 19.9054 13.997 19.3465 15.728 18.2902C17.0063 17.4918 18.5213 17.8102 19.2397 19.0068C19.9597 20.2052 19.638 21.7985 18.5197 22.4385C17.0047 23.3968 15.248 24.1152 13.4113 24.6735L13.4097 24.6718Z" fill="#9F9F9F"/>
</svg>
