<svg width="34" height="24" viewBox="0 0 34 24" fill="none" xmlns="http://www.w3.org/2000/svg">
<path d="M13.6663 17.0002L22.3163 12.0002L13.6663 7.00016V17.0002ZM32.933 3.95016C33.1497 4.7335 33.2997 5.7835 33.3997 7.11683C33.5163 8.45016 33.5663 9.60016 33.5663 10.6002L33.6663 12.0002C33.6663 15.6502 33.3997 18.3335 32.933 20.0502C32.5163 21.5502 31.5497 22.5168 30.0497 22.9335C29.2663 23.1502 27.833 23.3002 25.633 23.4002C23.4663 23.5168 21.483 23.5668 19.6497 23.5668L16.9997 23.6668C10.0163 23.6668 5.66634 23.4002 3.94967 22.9335C2.44967 22.5168 1.48301 21.5502 1.06634 20.0502C0.849675 19.2668 0.699675 18.2168 0.599675 16.8835C0.483008 15.5502 0.433008 14.4002 0.433008 13.4002L0.333008 12.0002C0.333008 8.35016 0.599675 5.66683 1.06634 3.95016C1.48301 2.45016 2.44967 1.4835 3.94967 1.06683C4.73301 0.850163 6.16634 0.700163 8.36634 0.600163C10.533 0.483496 12.5163 0.433496 14.3497 0.433496L16.9997 0.333496C23.983 0.333496 28.333 0.600163 30.0497 1.06683C31.5497 1.4835 32.5163 2.45016 32.933 3.95016Z" fill="#9F9F9F"/>
</svg>
