<svg width="112" height="24" viewBox="0 0 112 24" fill="none" xmlns="http://www.w3.org/2000/svg">
<path d="M44.099 17.88H44.2212V17.7605V12.6698V12.6238L44.1906 12.5896L42.6695 10.9396L44.099 9.50606L44.1336 9.47106V9.42226V4.77059V4.72159L44.097 4.68679L41.7226 2.31705L41.688 2.28125H41.637H31.8951H31.7729V2.40085V17.7605V17.88H31.8951H34.913H35.0352V17.7605V11.8798V9.42226V5.02178H40.2096L40.9162 5.71956V8.60509L40.2096 9.30287H37.7313H37.658L37.6254 9.36627L36.2977 11.8238L36.2041 11.9994H36.4057H39.6964L40.961 13.3956V17.7605V17.88H41.0811H44.099Z" fill="white"/>
<path d="M111.755 17.88H111.877V17.7605V12.6698V12.6238L111.846 12.5896L110.325 10.9396L111.755 9.50606L111.789 9.47106V9.42226V4.77059V4.72159L111.753 4.68679L109.38 2.31705L109.344 2.28125H109.293H99.5509H99.4287V2.40085V17.7605V17.88H99.5509H102.569H102.691V17.7605V11.8798V9.42226V5.02178H107.865L108.572 5.71956V8.60509L107.865 9.30287H105.387H105.316L105.281 9.36627L103.953 11.8238L103.86 11.9994H104.061H107.352L108.617 13.3956V17.7605V17.88H108.737H111.755Z" fill="white"/>
<path d="M64.6074 2.40085V2.28125H64.4853H61.4776H61.3574V2.40085V15.2873V15.3367L61.392 15.3719L63.913 17.845L63.9477 17.88H63.9986H72.2234H72.3456V17.7605V15.2371V15.1175H72.2234H65.6786H64.6074V14.0667V2.40085Z" fill="white"/>
<path d="M76.9439 2.40085V2.28125H76.8237H73.816H73.6938V2.40085V15.2873V15.3367L73.7305 15.3719L76.2495 17.845L76.2861 17.88H76.337H84.5619H84.682V17.7605V15.2371V15.1175H84.5619H78.015H76.9439V14.0667V2.40085Z" fill="white"/>
<path d="M97.4297 5.04378H97.5519V4.92418V2.40085V2.28125H97.4297H88.6775H88.6265L88.5919 2.31625L86.0669 4.79039L86.0322 4.82538V4.87498V15.2875V15.3369L86.0669 15.3719L88.5858 17.845L88.6225 17.88H88.6734H97.4297H97.5519V17.7605V15.2371V15.1175H97.4297H90.3697H89.3047V14.0675V11.407H96.7822H96.9043V11.2874V8.80788V8.68849H96.7822H89.3047V6.09775V5.04378H90.3778H97.4297Z" fill="white"/>
<path d="M46.1352 4.83978L46.1006 4.87478V4.92418V15.2371V15.2865L46.1352 15.3215L48.6949 17.8449L48.7316 17.88H48.7825H56.7955H56.8464L56.881 17.8449L59.4408 15.3215L59.4774 15.2865V15.2371V4.92418V4.87478L59.4408 4.83978L56.881 2.31645L56.8464 2.28125H56.7955H48.7825H48.7316L48.6949 2.31645L46.1352 4.83978ZM49.3954 15.1535V5.12378H56.2294V15.1535H49.3954Z" fill="white"/>
<path d="M31.6514 23.963V21.3965H32.696C32.92 21.3965 33.1135 21.4331 33.2723 21.5065C33.4352 21.5799 33.5594 21.6849 33.6449 21.8219C33.7325 21.9587 33.7773 22.1213 33.7773 22.3095C33.7773 22.4977 33.7325 22.6602 33.6449 22.797C33.5594 22.934 33.4352 23.039 33.2723 23.1124C33.1135 23.1858 32.92 23.2224 32.696 23.2224H31.914L32.1238 22.9988V23.963H31.6514ZM32.1238 23.05L31.914 22.819H32.6736C32.8833 22.819 33.0381 22.775 33.142 22.6871C33.2479 22.5967 33.3008 22.4709 33.3008 22.3095C33.3008 22.1457 33.2479 22.0199 33.142 21.9319C33.0381 21.8439 32.8833 21.7999 32.6736 21.7999H31.914L32.1238 21.5651V23.05Z" fill="white"/>
<path d="M35.4789 23.963L34.3691 21.3965H34.8803L35.8699 23.7174H35.5767L36.5765 21.3965H37.049L35.9432 23.963H35.4789Z" fill="white"/>
<path d="M38.9699 23.9993C38.7765 23.9993 38.5972 23.9675 38.4303 23.9039C38.2653 23.8379 38.1228 23.7463 37.9986 23.6289C37.8784 23.5091 37.7847 23.3685 37.7175 23.2073C37.6483 23.0459 37.6157 22.8699 37.6157 22.6793C37.6157 22.4885 37.6483 22.3125 37.7175 22.1514C37.7847 21.99 37.8805 21.8506 38.0026 21.7334C38.1269 21.6136 38.2694 21.522 38.4343 21.4584C38.5993 21.3924 38.7785 21.3594 38.974 21.3594C39.1817 21.3594 39.3711 21.396 39.5441 21.4694C39.7152 21.5402 39.8598 21.6466 39.9779 21.7884L39.6745 22.078C39.5828 21.9778 39.479 21.9032 39.365 21.8544C39.253 21.803 39.1287 21.7774 38.9964 21.7774C38.864 21.7774 38.7418 21.7994 38.6298 21.8434C38.5219 21.8874 38.4262 21.9496 38.3427 22.0304C38.2633 22.111 38.2002 22.2064 38.1554 22.3164C38.1126 22.4263 38.0902 22.5473 38.0902 22.6793C38.0902 22.8113 38.1126 22.9323 38.1554 23.0423C38.2002 23.1523 38.2633 23.2475 38.3427 23.3283C38.4262 23.4089 38.5219 23.4713 38.6298 23.5153C38.7418 23.5593 38.864 23.5813 38.9964 23.5813C39.1287 23.5813 39.253 23.5569 39.365 23.5079C39.479 23.4565 39.5828 23.3795 39.6745 23.2769L39.9779 23.5703C39.8598 23.7095 39.7152 23.8159 39.5441 23.8893C39.3711 23.9625 39.1817 23.9993 38.9699 23.9993Z" fill="white"/>
<path d="M43.0446 23.963L42.2036 21.3965H42.6923L43.4437 23.7174H43.2014L43.9793 21.3965H44.4151L45.1726 23.7174H44.9364L45.7061 21.3965H46.1541L45.3131 23.963H44.8142L44.1219 21.8695H44.2522L43.5476 23.963H43.0446Z" fill="white"/>
<path d="M47.0459 23.963V21.3965H47.5163V23.963H47.0459Z" fill="white"/>
<path d="M48.7119 23.963V21.3965H49.0988L50.6913 23.3728H50.4978V21.3965H50.9662V23.963H50.5772L48.9868 21.9869H49.1782V23.963H48.7119Z" fill="white"/>
<path d="M52.1528 23.963V21.3965H53.2627C53.5376 21.3965 53.7799 21.4503 53.9876 21.5579C54.1953 21.6655 54.3562 21.8145 54.4722 22.0051C54.5883 22.1959 54.6474 22.4207 54.6474 22.6798C54.6474 22.9364 54.5883 23.1614 54.4722 23.3544C54.3562 23.545 54.1953 23.6942 53.9876 23.8018C53.7799 23.9094 53.5376 23.963 53.2627 23.963H52.1528ZM52.6232 23.5598H53.2402C53.4317 23.5598 53.5946 23.523 53.733 23.4498C53.8736 23.3764 53.9815 23.2738 54.0548 23.1418C54.1322 23.0098 54.1709 22.8558 54.1709 22.6798C54.1709 22.5015 54.1322 22.3475 54.0548 22.2179C53.9815 22.0859 53.8736 21.9831 53.733 21.9099C53.5946 21.8365 53.4317 21.7999 53.2402 21.7999H52.6232V23.5598Z" fill="white"/>
<path d="M56.8446 23.9993C56.645 23.9993 56.4638 23.9663 56.2968 23.9003C56.1298 23.8343 55.9852 23.7425 55.861 23.6253C55.7388 23.5055 55.6431 23.3661 55.5759 23.2073C55.5067 23.0459 55.4741 22.8699 55.4741 22.6793C55.4741 22.4885 55.5067 22.3139 55.5759 22.155C55.6431 21.9936 55.7388 21.8544 55.861 21.737C55.9852 21.6172 56.1298 21.5244 56.2968 21.4584C56.4638 21.3924 56.645 21.3594 56.8405 21.3594C57.038 21.3594 57.2193 21.3924 57.3842 21.4584C57.5512 21.5244 57.6958 21.6172 57.818 21.737C57.9422 21.8544 58.0379 21.9936 58.1051 22.155C58.1723 22.3139 58.2069 22.4885 58.2069 22.6793C58.2069 22.8699 58.1723 23.0459 58.1051 23.2073C58.0379 23.3685 57.9422 23.5079 57.818 23.6253C57.6958 23.7425 57.5512 23.8343 57.3842 23.9003C57.2193 23.9663 57.0401 23.9993 56.8446 23.9993ZM56.8405 23.5813C56.9688 23.5813 57.0869 23.5593 57.1948 23.5153C57.3048 23.4713 57.3985 23.4089 57.4779 23.3283C57.5573 23.2451 57.6184 23.1499 57.6632 23.0423C57.708 22.9323 57.7324 22.8113 57.7324 22.6793C57.7324 22.5473 57.708 22.4275 57.6632 22.32C57.6184 22.21 57.5573 22.1146 57.4779 22.034C57.3985 21.951 57.3048 21.8874 57.1948 21.8434C57.0869 21.7994 56.9688 21.7774 56.8405 21.7774C56.7122 21.7774 56.5941 21.7994 56.4841 21.8434C56.3783 21.8874 56.2846 21.951 56.2011 22.034C56.1217 22.1146 56.0585 22.21 56.0137 22.32C55.971 22.4275 55.9486 22.5473 55.9486 22.6793C55.9486 22.8089 55.971 22.9285 56.0137 23.0385C56.0585 23.1485 56.1217 23.2451 56.2011 23.3283C56.2825 23.4089 56.3762 23.4713 56.4841 23.5153C56.5941 23.5593 56.7122 23.5813 56.8405 23.5813Z" fill="white"/>
<path d="M59.7302 23.963L58.8892 21.3965H59.3779L60.1293 23.7174H59.887L60.6649 21.3965H61.1007L61.8582 23.7174H61.622L62.3917 21.3965H62.8397L61.9987 23.963H61.4998L60.8074 21.8695H60.9377L60.2332 23.963H59.7302Z" fill="white"/>
<path d="M64.9351 23.963L66.0775 21.3965H66.5417L67.6862 23.963H67.1934L66.2119 21.6495H66.3992L65.4197 23.963H64.9351ZM65.4604 23.369L65.5867 22.995H66.9572L67.0854 23.369H65.4604Z" fill="white"/>
<path d="M68.5171 23.963V21.3965H68.904L70.4964 23.3728H70.303V21.3965H70.7713V23.963H70.3824L68.792 21.9869H68.9834V23.963H68.5171Z" fill="white"/>
<path d="M71.958 23.963V21.3965H73.0678C73.3427 21.3965 73.5851 21.4503 73.7928 21.5579C74.0005 21.6655 74.1613 21.8145 74.2774 22.0051C74.3935 22.1959 74.4525 22.4207 74.4525 22.6798C74.4525 22.9364 74.3935 23.1614 74.2774 23.3544C74.1613 23.545 74.0005 23.6942 73.7928 23.8018C73.5851 23.9094 73.3427 23.963 73.0678 23.963H71.958ZM72.4284 23.5598H73.0454C73.2368 23.5598 73.3997 23.523 73.5382 23.4498C73.6787 23.3764 73.7866 23.2738 73.86 23.1418C73.9373 23.0098 73.976 22.8558 73.976 22.6798C73.976 22.5015 73.9373 22.3475 73.86 22.2179C73.7866 22.0859 73.6787 21.9831 73.5382 21.9099C73.3997 21.8365 73.2368 21.7999 73.0454 21.7999H72.4284V23.5598Z" fill="white"/>
<path d="M76.9707 23.963V21.3965H78.0805C78.3554 21.3965 78.5978 21.4503 78.8055 21.5579C79.0132 21.6655 79.174 21.8145 79.2901 22.0051C79.4062 22.1959 79.4652 22.4207 79.4652 22.6798C79.4652 22.9364 79.4062 23.1614 79.2901 23.3544C79.174 23.545 79.0132 23.6942 78.8055 23.8018C78.5978 23.9094 78.3554 23.963 78.0805 23.963H76.9707ZM77.4411 23.5598H78.0581C78.2495 23.5598 78.4124 23.523 78.5509 23.4498C78.6914 23.3764 78.7993 23.2738 78.8727 23.1418C78.95 23.0098 78.9887 22.8558 78.9887 22.6798C78.9887 22.5015 78.95 22.3475 78.8727 22.2179C78.7993 22.0859 78.6914 21.9831 78.5509 21.9099C78.4124 21.8365 78.2495 21.7999 78.0581 21.7999H77.4411V23.5598Z" fill="white"/>
<path d="M81.662 23.9993C81.4624 23.9993 81.2812 23.9663 81.1142 23.9003C80.9472 23.8343 80.8026 23.7425 80.6784 23.6253C80.5562 23.5055 80.4605 23.3661 80.3933 23.2073C80.3241 23.0459 80.2915 22.8699 80.2915 22.6793C80.2915 22.4885 80.3241 22.3139 80.3933 22.155C80.4605 21.9936 80.5562 21.8544 80.6784 21.737C80.8026 21.6172 80.9472 21.5244 81.1142 21.4584C81.2812 21.3924 81.4624 21.3594 81.6579 21.3594C81.8554 21.3594 82.0367 21.3924 82.2016 21.4584C82.3686 21.5244 82.5132 21.6172 82.6354 21.737C82.7596 21.8544 82.8553 21.9936 82.9225 22.155C82.9897 22.3139 83.0243 22.4885 83.0243 22.6793C83.0243 22.8699 82.9897 23.0459 82.9225 23.2073C82.8553 23.3685 82.7596 23.5079 82.6354 23.6253C82.5132 23.7425 82.3686 23.8343 82.2016 23.9003C82.0367 23.9663 81.8575 23.9993 81.662 23.9993ZM81.6579 23.5813C81.7862 23.5813 81.9043 23.5593 82.0122 23.5153C82.1222 23.4713 82.2159 23.4089 82.2953 23.3283C82.3747 23.2451 82.4358 23.1499 82.4806 23.0423C82.5254 22.9323 82.5498 22.8113 82.5498 22.6793C82.5498 22.5473 82.5254 22.4275 82.4806 22.32C82.4358 22.21 82.3747 22.1146 82.2953 22.034C82.2159 21.951 82.1222 21.8874 82.0122 21.8434C81.9043 21.7994 81.7862 21.7774 81.6579 21.7774C81.5296 21.7774 81.4115 21.7994 81.3015 21.8434C81.1956 21.8874 81.102 21.951 81.0185 22.034C80.9391 22.1146 80.8759 22.21 80.8311 22.32C80.7884 22.4275 80.766 22.5473 80.766 22.6793C80.766 22.8089 80.7884 22.9285 80.8311 23.0385C80.8759 23.1485 80.9391 23.2451 81.0185 23.3283C81.0999 23.4089 81.1936 23.4713 81.3015 23.5153C81.4115 23.5593 81.5296 23.5813 81.6579 23.5813Z" fill="white"/>
<path d="M85.2191 23.9993C85.0216 23.9993 84.8383 23.9663 84.6713 23.9003C84.5043 23.8343 84.3598 23.7425 84.2376 23.6253C84.1134 23.5055 84.0177 23.3661 83.9505 23.2073C83.8833 23.0459 83.8486 22.8699 83.8486 22.6793C83.8486 22.4885 83.8833 22.3139 83.9505 22.155C84.0177 21.9936 84.1134 21.8544 84.2376 21.737C84.3598 21.6172 84.5043 21.5244 84.6713 21.4584C84.8383 21.3924 85.0195 21.3594 85.215 21.3594C85.4146 21.3594 85.5958 21.3924 85.7587 21.4584C85.9257 21.5244 86.0703 21.6172 86.1945 21.737C86.3167 21.8544 86.4124 21.9936 86.4816 22.155C86.5488 22.3139 86.5814 22.4885 86.5814 22.6793C86.5814 22.8699 86.5488 23.0459 86.4816 23.2073C86.4124 23.3685 86.3167 23.5079 86.1945 23.6253C86.0703 23.7425 85.9257 23.8343 85.7587 23.9003C85.5958 23.9663 85.4146 23.9993 85.2191 23.9993ZM85.215 23.5813C85.3433 23.5813 85.4614 23.5593 85.5714 23.5153C85.6793 23.4713 85.773 23.4089 85.8544 23.3283C85.9339 23.2451 85.995 23.1499 86.0377 23.0423C86.0846 22.9323 86.1069 22.8113 86.1069 22.6793C86.1069 22.5473 86.0846 22.4275 86.0377 22.32C85.995 22.21 85.9339 22.1146 85.8544 22.034C85.773 21.951 85.6793 21.8874 85.5714 21.8434C85.4614 21.7994 85.3433 21.7774 85.215 21.7774C85.0867 21.7774 84.9686 21.7994 84.8607 21.8434C84.7548 21.8874 84.6591 21.951 84.5776 22.034C84.4982 22.1146 84.4351 22.21 84.3903 22.32C84.3455 22.4275 84.3231 22.5473 84.3231 22.6793C84.3231 22.8089 84.3455 22.9285 84.3903 23.0385C84.4351 23.1485 84.4982 23.2451 84.5776 23.3283C84.6571 23.4089 84.7528 23.4713 84.8607 23.5153C84.9686 23.5593 85.0867 23.5813 85.215 23.5813Z" fill="white"/>
<path d="M87.5898 23.963V21.3965H88.6345C88.8585 21.3965 89.0499 21.4331 89.2108 21.5065C89.3716 21.5799 89.4959 21.6849 89.5834 21.8219C89.671 21.9587 89.7138 22.1213 89.7138 22.3095C89.7138 22.4977 89.671 22.6602 89.5834 22.797C89.4959 22.9316 89.3716 23.0354 89.2108 23.1088C89.0499 23.1796 88.8585 23.215 88.6345 23.215H87.8505L88.0602 22.9988V23.963H87.5898ZM89.2495 23.963L88.608 23.0318H89.113L89.7565 23.963H89.2495ZM88.0602 23.05L87.8505 22.8228H88.6121C88.8198 22.8228 88.9746 22.7776 89.0784 22.6871C89.1863 22.5967 89.2393 22.4709 89.2393 22.3095C89.2393 22.1457 89.1863 22.0199 89.0784 21.9319C88.9746 21.8439 88.8198 21.7999 88.6121 21.7999H87.8505L88.0602 21.5651V23.05Z" fill="white"/>
<path d="M93.0433 23.9993C92.8458 23.9993 92.6564 23.9711 92.4752 23.9149C92.2939 23.8563 92.1493 23.7817 92.0435 23.6913L92.2064 23.3209C92.3082 23.4015 92.4344 23.4689 92.5831 23.5225C92.7338 23.5763 92.8865 23.6033 93.0433 23.6033C93.1777 23.6033 93.2856 23.5885 93.3671 23.5593C93.4485 23.5299 93.5096 23.4909 93.5483 23.4419C93.587 23.3905 93.6054 23.3331 93.6054 23.2695C93.6054 23.1913 93.5789 23.1291 93.5219 23.0825C93.4669 23.0337 93.3956 22.9959 93.306 22.9689C93.2184 22.9395 93.1207 22.9127 93.0107 22.8883C92.9048 22.8639 92.7969 22.8357 92.689 22.8039C92.5831 22.7697 92.4853 22.7269 92.3957 22.6755C92.3082 22.6219 92.2369 22.5509 92.1819 22.4629C92.127 22.3749 92.0984 22.2626 92.0984 22.1256C92.0984 21.9864 92.1351 21.8592 92.2064 21.7444C92.2817 21.627 92.3937 21.5342 92.5444 21.4656C92.6971 21.3948 92.8886 21.3594 93.1207 21.3594C93.2734 21.3594 93.4241 21.379 93.5728 21.418C93.7235 21.4572 93.8538 21.5134 93.9658 21.5866L93.8171 21.957C93.7031 21.8886 93.585 21.8384 93.4648 21.8066C93.3447 21.7724 93.2286 21.7554 93.1166 21.7554C92.9863 21.7554 92.8804 21.7712 92.7969 21.803C92.7175 21.8348 92.6584 21.8764 92.6197 21.9276C92.5831 21.979 92.5668 22.0376 92.5668 22.1036C92.5668 22.182 92.5933 22.2454 92.6462 22.2944C92.7012 22.3408 92.7725 22.3774 92.86 22.4043C92.9496 22.4311 93.0474 22.4581 93.1573 22.4849C93.2653 22.5093 93.3732 22.5375 93.4791 22.5693C93.587 22.6011 93.6868 22.6425 93.7723 22.6939C93.8619 22.7453 93.9332 22.8149 93.9861 22.9029C94.0432 22.9909 94.0696 23.1021 94.0696 23.2365C94.0696 23.3735 94.033 23.5005 93.9576 23.6179C93.8843 23.7329 93.7723 23.8257 93.6216 23.8965C93.4689 23.9651 93.2755 23.9993 93.0433 23.9993Z" fill="white"/>
<path d="M95.6155 23.963V22.9474L95.7214 23.2408L94.6177 21.3965H95.1227L96.0065 22.8814H95.7234L96.6153 21.3965H97.0796L95.9779 23.2408L96.0859 22.9474V23.963H95.6155Z" fill="white"/>
<path d="M98.6287 23.9993C98.4312 23.9993 98.2418 23.9711 98.0606 23.9149C97.8794 23.8563 97.7348 23.7817 97.6289 23.6913L97.7918 23.3209C97.8936 23.4015 98.0178 23.4689 98.1685 23.5225C98.3192 23.5763 98.4719 23.6033 98.6287 23.6033C98.7611 23.6033 98.869 23.5885 98.9505 23.5593C99.034 23.5299 99.093 23.4909 99.1317 23.4419C99.1704 23.3905 99.1908 23.3331 99.1908 23.2695C99.1908 23.1913 99.1623 23.1291 99.1073 23.0825C99.0523 23.0337 98.979 22.9959 98.8894 22.9689C98.8018 22.9395 98.7041 22.9127 98.5962 22.8883C98.4903 22.8639 98.3823 22.8357 98.2744 22.8039C98.1665 22.7697 98.0688 22.7269 97.9792 22.6755C97.8936 22.6219 97.8223 22.5509 97.7653 22.4629C97.7103 22.3749 97.6818 22.2626 97.6818 22.1256C97.6818 21.9864 97.7185 21.8592 97.7918 21.7444C97.8671 21.627 97.9791 21.5342 98.1278 21.4656C98.2805 21.3948 98.474 21.3594 98.7041 21.3594C98.8568 21.3594 99.0075 21.379 99.1582 21.418C99.3089 21.4572 99.4392 21.5134 99.5492 21.5866L99.4005 21.957C99.2865 21.8886 99.1704 21.8384 99.0503 21.8066C98.9281 21.7724 98.812 21.7554 98.702 21.7554C98.5717 21.7554 98.4638 21.7712 98.3823 21.803C98.3029 21.8348 98.2439 21.8764 98.2052 21.9276C98.1685 21.979 98.1502 22.0376 98.1502 22.1036C98.1502 22.182 98.1767 22.2454 98.2296 22.2944C98.2866 22.3408 98.3579 22.3774 98.4434 22.4043C98.533 22.4311 98.6328 22.4581 98.7407 22.4849C98.8507 22.5093 98.9566 22.5375 99.0645 22.5693C99.1724 22.6011 99.2702 22.6425 99.3578 22.6939C99.4474 22.7453 99.5186 22.8149 99.5716 22.9029C99.6266 22.9909 99.6551 23.1021 99.6551 23.2365C99.6551 23.3735 99.6164 23.5005 99.5431 23.6179C99.4698 23.7329 99.3578 23.8257 99.205 23.8965C99.0523 23.9651 98.8609 23.9993 98.6287 23.9993Z" fill="white"/>
<path d="M101.11 23.963V21.7999H100.269V21.3965H102.421V21.7999H101.58V23.963H101.11Z" fill="white"/>
<path d="M103.718 22.4635H104.978V22.8558H103.718V22.4635ZM103.752 23.5634H105.186V23.963H103.282V21.3965H105.135V21.7961H103.752V23.5634Z" fill="white"/>
<path d="M106.219 23.963V21.3965H106.606L107.715 23.27H107.512L108.603 21.3965H108.99L108.994 23.963H108.548L108.546 22.1041H108.64L107.711 23.6698H107.502L106.559 22.1041H106.667V23.963H106.219Z" fill="white"/>
<path d="M110.973 23.9993C110.776 23.9993 110.587 23.9711 110.405 23.9149C110.224 23.8563 110.08 23.7817 109.974 23.6913L110.137 23.3209C110.238 23.4015 110.365 23.4689 110.513 23.5225C110.664 23.5763 110.817 23.6033 110.973 23.6033C111.108 23.6033 111.214 23.5885 111.297 23.5593C111.379 23.5299 111.44 23.4909 111.478 23.4419C111.517 23.3905 111.536 23.3331 111.536 23.2695C111.536 23.1913 111.509 23.1291 111.452 23.0825C111.397 23.0337 111.324 22.9959 111.234 22.9689C111.149 22.9395 111.051 22.9127 110.941 22.8883C110.835 22.8639 110.727 22.8357 110.619 22.8039C110.513 22.7697 110.416 22.7269 110.326 22.6755C110.238 22.6219 110.167 22.5509 110.112 22.4629C110.055 22.3749 110.029 22.2626 110.029 22.1256C110.029 21.9864 110.063 21.8592 110.137 21.7444C110.212 21.627 110.324 21.5342 110.475 21.4656C110.625 21.3948 110.819 21.3594 111.051 21.3594C111.202 21.3594 111.354 21.379 111.503 21.418C111.654 21.4572 111.784 21.5134 111.894 21.5866L111.745 21.957C111.633 21.8886 111.515 21.8384 111.395 21.8066C111.273 21.7724 111.157 21.7554 111.047 21.7554C110.916 21.7554 110.811 21.7712 110.727 21.803C110.648 21.8348 110.589 21.8764 110.55 21.9276C110.513 21.979 110.495 22.0376 110.495 22.1036C110.495 22.182 110.521 22.2454 110.574 22.2944C110.631 22.3408 110.703 22.3774 110.788 22.4043C110.878 22.4311 110.978 22.4581 111.085 22.4849C111.195 22.5093 111.303 22.5375 111.409 22.5693C111.517 22.6011 111.615 22.6425 111.702 22.6939C111.792 22.7453 111.863 22.8149 111.916 22.9029C111.971 22.9909 112 23.1021 112 23.2365C112 23.3735 111.963 23.5005 111.888 23.6179C111.814 23.7329 111.702 23.8257 111.55 23.8965C111.399 23.9651 111.206 23.9993 110.973 23.9993Z" fill="white"/>
<path fill-rule="evenodd" clip-rule="evenodd" d="M24.3487 23.9994H0L0 0L15.7655 0L24.3487 4.79988V23.9994ZM20.4511 8.98237L12.1739 4.19989L6.57397 7.43501V5.73205H3.89555V19.9195H6.57397V10.4993L12.1739 7.26421L17.7733 10.4993V17.2744H13.3913V15.7114H10.7131V19.9195H20.4511V8.98237Z" fill="white"/>
</svg>
