<svg width="64" height="64" viewBox="0 0 64 64" fill="none" xmlns="http://www.w3.org/2000/svg">
<path d="M31.9997 50.6666C42.309 50.6666 50.6663 42.3092 50.6663 31.9999C50.6663 21.6906 42.309 13.3333 31.9997 13.3333C21.6904 13.3333 13.333 21.6906 13.333 31.9999C13.333 42.3092 21.6904 50.6666 31.9997 50.6666Z" fill="#ECC2C8"/>
<path d="M32.0003 61.2267C30.5337 61.2267 29.3337 60.1334 29.3337 58.6667V58.4534C29.3337 56.9868 30.5337 55.7868 32.0003 55.7868C33.467 55.7868 34.667 56.9868 34.667 58.4534C34.667 59.9201 33.467 61.2267 32.0003 61.2267ZM51.0403 53.7067C50.347 53.7067 49.6803 53.4401 49.147 52.9334L48.8003 52.5867C47.7603 51.5467 47.7603 49.8667 48.8003 48.8267C49.8403 47.7867 51.5203 47.7867 52.5603 48.8267L52.907 49.1734C53.947 50.2134 53.947 51.8934 52.907 52.9334C52.4003 53.4401 51.7337 53.7067 51.0403 53.7067ZM12.9603 53.7067C12.267 53.7067 11.6003 53.4401 11.067 52.9334C10.027 51.8934 10.027 50.2134 11.067 49.1734L11.4137 48.8267C12.4537 47.7867 14.1337 47.7867 15.1737 48.8267C16.2137 49.8667 16.2137 51.5467 15.1737 52.5867L14.827 52.9334C14.3203 53.4401 13.627 53.7067 12.9603 53.7067ZM58.667 34.6667H58.4537C56.987 34.6667 55.787 33.4667 55.787 32.0001C55.787 30.5334 56.987 29.3334 58.4537 29.3334C59.9203 29.3334 61.227 30.5334 61.227 32.0001C61.227 33.4667 60.1337 34.6667 58.667 34.6667ZM5.54699 34.6667H5.33366C3.86699 34.6667 2.66699 33.4667 2.66699 32.0001C2.66699 30.5334 3.86699 29.3334 5.33366 29.3334C6.80033 29.3334 8.10699 30.5334 8.10699 32.0001C8.10699 33.4667 7.01366 34.6667 5.54699 34.6667ZM50.6937 15.9734C50.0003 15.9734 49.3337 15.7067 48.8003 15.2001C47.7603 14.1601 47.7603 12.4801 48.8003 11.4401L49.147 11.0934C50.187 10.0534 51.867 10.0534 52.907 11.0934C53.947 12.1334 53.947 13.8134 52.907 14.8534L52.5603 15.2001C52.0537 15.7067 51.387 15.9734 50.6937 15.9734ZM13.307 15.9734C12.6137 15.9734 11.947 15.7067 11.4137 15.2001L11.067 14.8267C10.027 13.7867 10.027 12.1067 11.067 11.0667C12.107 10.0267 13.787 10.0267 14.827 11.0667L15.1737 11.4134C16.2137 12.4534 16.2137 14.1334 15.1737 15.1734C14.667 15.7067 13.9737 15.9734 13.307 15.9734ZM32.0003 8.10675C30.5337 8.10675 29.3337 7.01341 29.3337 5.54675V5.33341C29.3337 3.86675 30.5337 2.66675 32.0003 2.66675C33.467 2.66675 34.667 3.86675 34.667 5.33341C34.667 6.80008 33.467 8.10675 32.0003 8.10675Z" fill="#ECC2C8"/>
</svg>
