<svg width="64" height="64" viewBox="0 0 64 64" fill="none" xmlns="http://www.w3.org/2000/svg">
<path d="M35.333 33.5466V38.8266C35.333 40.6666 33.8397 42.1599 31.9997 42.1599C30.1597 42.1599 28.6663 40.6666 28.6663 38.8266V33.5466C27.7063 32.9599 26.9597 32.1066 26.4263 31.0933H7.99967C6.53301 31.0933 5.33301 32.2933 5.33301 33.7599V43.1733C5.33301 51.7333 12.2663 58.6666 20.8263 58.6666H43.1463C51.733 58.6666 58.6663 51.7333 58.6663 43.1733V33.7599C58.6663 32.2933 57.4663 31.0933 55.9997 31.0933H37.573C37.0397 32.1066 36.293 32.9599 35.333 33.5466Z" fill="#ECC2C8"/>
<path d="M43.173 5.33325H20.8263C12.2663 5.33325 5.33301 12.2666 5.33301 20.8266V24.4266C5.33301 25.8932 6.53301 27.0933 7.99967 27.0933H25.7863C26.3997 23.5732 29.893 21.0666 33.7063 22.0799C35.8397 22.6399 37.573 24.3732 38.133 26.5066C38.1863 26.6932 38.1863 26.9066 38.213 27.0933H55.9997C57.4663 27.0933 58.6663 25.8932 58.6663 24.4266V20.8266C58.6663 12.2666 51.733 5.33325 43.173 5.33325Z" fill="#ECC2C8"/>
</svg>
