<svg width="64" height="64" viewBox="0 0 64 64" fill="none" xmlns="http://www.w3.org/2000/svg">
<path d="M7.33285 49.7332C6.23952 49.7332 5.33285 48.8265 5.33285 47.7332V32.5332C5.19952 25.3066 7.89285 18.4799 12.9062 13.3599C17.9195 8.26655 24.6395 5.46655 31.8662 5.46655C46.6395 5.46655 58.6662 17.4932 58.6662 32.2666V47.4665C58.6662 48.5599 57.7595 49.4665 56.6662 49.4665C55.5729 49.4665 54.6662 48.5599 54.6662 47.4665V32.2666C54.6662 19.7066 44.4528 9.46655 31.8662 9.46655C25.7062 9.46655 19.9995 11.8399 15.7595 16.1599C11.4928 20.5066 9.22618 26.2932 9.33285 32.4799V47.7065C9.33285 48.8265 8.45285 49.7332 7.33285 49.7332Z" fill="#ECC2C8"/>
<path d="M15.8397 33.2H15.493C9.89301 33.2 5.33301 37.76 5.33301 43.36V48.3733C5.33301 53.9733 9.89301 58.5333 15.493 58.5333H15.8397C21.4397 58.5333 25.9997 53.9733 25.9997 48.3733V43.36C25.9997 37.76 21.4397 33.2 15.8397 33.2Z" fill="#ECC2C8"/>
<path d="M48.5067 33.2H48.16C42.56 33.2 38 37.76 38 43.36V48.3733C38 53.9733 42.56 58.5333 48.16 58.5333H48.5067C54.1067 58.5333 58.6667 53.9733 58.6667 48.3733V43.36C58.6667 37.76 54.1067 33.2 48.5067 33.2Z" fill="#ECC2C8"/>
</svg>
