<svg width="34" height="34" viewBox="0 0 34 34" fill="none" xmlns="http://www.w3.org/2000/svg">
<path d="M16.9997 0.333496C7.79967 0.333496 0.333008 7.80016 0.333008 17.0002C0.333008 26.2002 7.79967 33.6668 16.9997 33.6668C26.1997 33.6668 33.6663 26.2002 33.6663 17.0002C33.6663 7.80016 26.1997 0.333496 16.9997 0.333496ZM24.733 11.6668C24.483 14.3002 23.3997 20.7002 22.8497 23.6502C22.6163 24.9002 22.1497 25.3168 21.7163 25.3668C20.7497 25.4502 20.0163 24.7335 19.083 24.1168C17.6163 23.1502 16.783 22.5502 15.3663 21.6168C13.7163 20.5335 14.783 19.9335 15.733 18.9668C15.983 18.7168 20.2497 14.8335 20.333 14.4835C20.3446 14.4305 20.343 14.3754 20.3285 14.3232C20.314 14.2709 20.2869 14.2229 20.2497 14.1835C20.1497 14.1002 20.0163 14.1335 19.8997 14.1502C19.7497 14.1835 17.4163 15.7335 12.8663 18.8002C12.1997 19.2502 11.5997 19.4835 11.0663 19.4668C10.4663 19.4502 9.33301 19.1335 8.48301 18.8502C7.43301 18.5168 6.61634 18.3335 6.68301 17.7502C6.71634 17.4502 7.13301 17.1502 7.91634 16.8335C12.783 14.7168 16.0163 13.3168 17.633 12.6502C22.2663 10.7168 23.2163 10.3835 23.8497 10.3835C23.983 10.3835 24.2997 10.4168 24.4997 10.5835C24.6663 10.7168 24.7163 10.9002 24.733 11.0335C24.7163 11.1335 24.7497 11.4335 24.733 11.6668Z" fill="#9F9F9F"/>
</svg>
