<svg width="222" height="44" viewBox="0 0 222 44" fill="none" xmlns="http://www.w3.org/2000/svg">
<g clip-path="url(#clip0_983_3064)">
<path d="M56.6538 29.7999C56.3748 29.7999 56.1484 29.569 56.1484 29.2838V0.53104C56.1484 0.24598 56.3748 0.0148926 56.6538 0.0148926H69.4808C72.1467 0.0148926 74.4383 0.454578 76.355 1.33396C78.2988 2.21332 79.7986 3.48983 80.8544 5.16346C81.9095 6.80874 82.4374 8.76604 82.4374 11.0354C82.4374 13.2764 81.9095 15.2195 80.8544 16.8648C79.7986 18.4817 78.2988 19.7298 76.355 20.6092C74.4383 21.4602 72.1467 21.8857 69.4808 21.8857H62.0038C61.5464 21.8857 61.3243 21.3146 61.6571 20.994L63.5454 19.1748C63.8678 18.8643 64.3977 19.0977 64.3977 19.5504V29.2838C64.3977 29.569 64.1713 29.7999 63.8924 29.7999H56.6538ZM74.4551 29.7999C74.288 29.7999 74.1318 29.7158 74.0376 29.5749L67.4782 19.7568C67.2491 19.4142 67.4899 18.9497 67.8958 18.9497H75.4638C75.6303 18.9497 75.7865 19.0335 75.8807 19.1738L82.4774 28.9919C82.7078 29.3344 82.4678 29.7999 82.0612 29.7999H74.4551ZM64.3977 17.9713C64.3977 18.4354 63.8449 18.6637 63.529 18.3302L61.5598 16.2505C61.2497 15.9229 61.4769 15.3755 61.9232 15.3755H68.9806C70.7024 15.3755 71.9802 14.9925 72.8133 14.2266C73.6742 13.4608 74.1053 12.397 74.1053 11.0354C74.1053 9.64546 73.6742 8.56746 72.8133 7.80154C71.9802 7.03569 70.7024 6.6527 68.9806 6.6527H61.9232C61.4769 6.6527 61.2497 6.10533 61.5598 5.77778L63.529 3.69809C63.8449 3.36451 64.3977 3.59288 64.3977 4.05689V17.9713Z" fill="#D3001A"/>
<path d="M101.959 29.9366C99.6854 29.9366 97.588 29.5665 95.6662 28.8263C93.7444 28.0862 92.0664 27.0443 90.6318 25.701C89.2243 24.3304 88.1285 22.7403 87.3431 20.9309C86.5584 19.1216 86.166 17.134 86.166 14.9683C86.166 12.8025 86.5584 10.815 87.3431 9.00565C88.1285 7.1963 89.2243 5.61997 90.6318 4.27665C92.0664 2.90594 93.7444 1.85047 95.6662 1.11029C97.588 0.370096 99.6854 0 101.959 0C104.26 0 106.358 0.370096 108.252 1.11029C110.174 1.85047 111.838 2.90594 113.245 4.27665C114.653 5.61997 115.749 7.1963 116.534 9.00565C117.346 10.815 117.752 12.8025 117.752 14.9683C117.752 17.134 117.346 19.1353 116.534 20.9721C115.749 22.7814 114.653 24.3578 113.245 25.701C111.838 27.0443 110.174 28.0862 108.252 28.8263C106.358 29.5665 104.26 29.9366 101.959 29.9366ZM101.959 23.1926C103.042 23.1926 104.043 23.0007 104.963 22.6169C105.91 22.2331 106.723 21.6848 107.399 20.9721C108.103 20.2318 108.645 19.3546 109.024 18.3402C109.43 17.3259 109.632 16.2019 109.632 14.9683C109.632 13.7072 109.43 12.5832 109.024 11.5963C108.645 10.582 108.103 9.71839 107.399 9.00565C106.723 8.26543 105.91 7.70344 104.963 7.31962C104.043 6.93587 103.042 6.74399 101.959 6.74399C100.877 6.74399 99.8616 6.93587 98.9142 7.31962C97.994 7.70344 97.1821 8.26543 96.478 9.00565C95.8017 9.71839 95.2603 10.582 94.8543 11.5963C94.4755 12.5832 94.2858 13.7072 94.2858 14.9683C94.2858 16.2019 94.4755 17.3259 94.8543 18.3402C95.2603 19.3546 95.8017 20.2318 96.478 20.9721C97.1821 21.6848 97.994 22.2331 98.9142 22.6169C99.8616 23.0007 100.877 23.1926 101.959 23.1926Z" fill="#D3001A"/>
<path d="M120.533 29.8002C120.254 29.8002 120.027 29.5692 120.027 29.284V0.531284C120.027 0.246224 120.254 0.0151367 120.533 0.0151367H127.771C128.05 0.0151367 128.277 0.246224 128.277 0.531284V22.6037C128.277 22.8888 128.503 23.1199 128.782 23.1199H141.776C142.056 23.1199 142.282 23.351 142.282 23.636V29.284C142.282 29.5692 142.056 29.8002 141.776 29.8002H120.533Z" fill="#D3001A"/>
<path d="M145.37 29.7851C145.09 29.7851 144.864 29.5541 144.864 29.2689V0.516147C144.864 0.231087 145.09 0 145.37 0H152.608C152.887 0 153.113 0.231087 153.113 0.516147V22.5886C153.113 22.8737 153.34 23.1048 153.618 23.1048H166.523C166.802 23.1048 167.028 23.3358 167.028 23.6209V29.2689C167.028 29.5541 166.802 29.7851 166.523 29.7851H145.37Z" fill="#1D1D1B"/>
<path d="M177.138 12.0624C177.138 11.7773 177.364 11.5462 177.643 11.5462H190.172C190.452 11.5462 190.678 11.7773 190.678 12.0624V17.3275C190.678 17.6125 190.452 17.8436 190.172 17.8436H177.643C177.364 17.8436 177.138 17.6125 177.138 17.3275V12.0624ZM177.721 22.7739C177.721 23.059 177.947 23.2901 178.226 23.2901H192.55C192.829 23.2901 193.055 23.5212 193.055 23.8062V29.284C193.055 29.5692 192.829 29.8002 192.55 29.8002H170.06C169.781 29.8002 169.555 29.5692 169.555 29.284V0.531284C169.555 0.246224 169.781 0.0151367 170.06 0.0151367H191.922C192.201 0.0151367 192.428 0.246224 192.428 0.531284V6.00916C192.428 6.29422 192.201 6.52531 191.922 6.52531H178.226C177.947 6.52531 177.721 6.75641 177.721 7.04145V22.7739Z" fill="#1D1D1B"/>
<path d="M196.087 29.7851C195.808 29.7851 195.582 29.5541 195.582 29.2689V0.516147C195.582 0.231087 195.808 0 196.087 0H208.914C211.58 0 213.872 0.439686 215.789 1.31907C217.732 2.19842 219.233 3.47494 220.288 5.14857C221.343 6.79385 221.871 8.75115 221.871 11.0205C221.871 13.2615 221.343 15.2046 220.288 16.8499C219.233 18.4668 217.732 19.7149 215.789 20.5943C213.872 21.4453 211.58 21.8708 208.914 21.8708H201.437C200.98 21.8708 200.758 21.2997 201.09 20.9791L202.979 19.16C203.302 18.8494 203.831 19.0829 203.831 19.5355V29.2689C203.831 29.5541 203.605 29.7851 203.326 29.7851H196.087ZM213.889 29.7851C213.722 29.7851 213.565 29.701 213.471 29.56L206.912 19.7419C206.683 19.3993 206.923 18.9348 207.329 18.9348H214.897C215.064 18.9348 215.22 19.0186 215.314 19.1589L221.911 28.9771C222.141 29.3195 221.901 29.7851 221.495 29.7851H213.889ZM203.831 17.9565C203.831 18.4205 203.278 18.6489 202.963 18.3153L200.993 16.2356C200.683 15.908 200.911 15.3607 201.357 15.3607H208.414C210.136 15.3607 211.414 14.9777 212.247 14.2117C213.108 13.4458 213.539 12.3821 213.539 11.0205C213.539 9.63052 213.108 8.55258 212.247 7.78666C211.414 7.02074 210.136 6.63781 208.414 6.63781H201.357C200.911 6.63781 200.683 6.09044 200.993 5.76286L202.963 3.6832C203.278 3.34962 203.831 3.57798 203.831 4.04201V17.9565Z" fill="#1D1D1B"/>
<path d="M0.0171426 11.5889C5.5574 14.8458 10.9721 18.027 16.3843 21.2119C21.9761 24.5022 27.5656 27.7962 33.1549 31.0905C33.6231 31.3664 34.0847 31.6539 34.5469 31.9404C36.4694 33.1319 37.4668 34.8243 37.4058 37.1736C37.349 39.3422 37.394 41.5138 37.394 43.7939C36.9414 43.5436 36.5369 43.3317 36.1432 43.1005C25.4282 36.797 14.7134 30.4923 4.00065 24.1838C3.47413 23.8737 2.96203 23.5362 2.45276 23.1965C0.887206 22.1534 0.0820335 20.6381 0.0323054 18.7647C-0.030119 16.4216 0.0171426 14.0752 0.0171426 11.5889Z" fill="#D3001A"/>
<path d="M5.30341 0C10.2628 2.91613 15.1182 5.76924 19.9721 8.62489C24.332 11.1902 28.6903 13.7573 33.0475 16.3269C33.4858 16.5856 33.9326 16.838 34.3362 17.1471C36.5884 18.871 36.7892 21.5213 34.8312 23.5885C33.6615 24.8236 32.1021 25.4469 30.6489 26.4265C30.3656 25.1067 29.4656 24.4615 28.4859 23.8856C22.1054 20.1353 15.7265 16.3832 9.34973 12.627C8.79428 12.2996 8.25251 11.947 7.71506 11.589C6.2211 10.5941 5.38452 9.15653 5.32353 7.36311C5.24206 4.9527 5.30341 2.53759 5.30341 0Z" fill="#1D1D1B"/>
<path d="M5.29199 43.8724V28.8985C5.73321 28.8433 5.99876 29.1592 6.30419 29.3364C8.65445 30.7001 10.9871 32.0958 13.3416 33.4517C13.8117 33.7222 13.9828 34.0264 13.9874 34.5888C14.0078 37.2676 13.0524 39.3296 10.6683 40.6509C8.89214 41.6352 7.17742 42.7367 5.29199 43.8724Z" fill="#1D1D1B"/>
<path d="M56.0967 43.797V38.5281H58.2504C58.7141 38.5281 59.1104 38.6033 59.4395 38.7539C59.7735 38.9044 60.0302 39.1202 60.2097 39.4012C60.3892 39.6822 60.4789 40.0159 60.4789 40.4023C60.4789 40.7887 60.3892 41.1224 60.2097 41.4034C60.0302 41.6845 59.7735 41.9002 59.4395 42.0508C59.1104 42.2013 58.7141 42.2766 58.2504 42.2766H56.6351L57.0688 41.8174V43.797H56.0967ZM57.0688 41.9228L56.6351 41.4486H58.2056C58.6343 41.4486 58.9558 41.3582 59.1702 41.1776C59.3896 40.9919 59.4993 40.7335 59.4993 40.4023C59.4993 40.0661 59.3896 39.8076 59.1702 39.627C58.9558 39.4463 58.6343 39.356 58.2056 39.356H56.6351L57.0688 38.8743V41.9228Z" fill="#1D1D1B"/>
<path d="M63.9934 43.797L61.7051 38.5281H62.7595L64.8008 43.2928H64.1953L66.2593 38.5281H67.2312L64.9505 43.797H63.9934Z" fill="#1D1D1B"/>
<path d="M71.1954 43.8725C70.7966 43.8725 70.4248 43.8072 70.0809 43.6768C69.7421 43.5413 69.4452 43.3531 69.1909 43.1122C68.9418 42.8663 68.7476 42.5778 68.6075 42.2466C68.4681 41.9154 68.3984 41.5541 68.3984 41.1626C68.3984 40.7712 68.4681 40.41 68.6075 40.0788C68.7476 39.7476 68.9444 39.4616 69.1987 39.2207C69.4529 38.9748 69.7492 38.7866 70.0886 38.6561C70.4274 38.5207 70.7985 38.4529 71.2025 38.4529C71.6316 38.4529 72.0227 38.5282 72.3764 38.6787C72.7307 38.8243 73.0295 39.0425 73.274 39.3336L72.6461 39.9282C72.4564 39.7225 72.2447 39.5694 72.0105 39.4691C71.7762 39.3637 71.5219 39.311 71.2477 39.311C70.9734 39.311 70.7217 39.3562 70.492 39.4465C70.268 39.5368 70.0712 39.6648 69.9015 39.8303C69.7369 39.9959 69.6072 40.1916 69.5123 40.4175C69.4226 40.6433 69.3781 40.8917 69.3781 41.1626C69.3781 41.4337 69.4226 41.682 69.5123 41.9078C69.6072 42.1337 69.7369 42.3294 69.9015 42.495C70.0712 42.6606 70.268 42.7885 70.492 42.8788C70.7217 42.9692 70.9734 43.0143 71.2477 43.0143C71.5219 43.0143 71.7762 42.9642 72.0105 42.8638C72.2447 42.7584 72.4564 42.6004 72.6461 42.3896L73.274 42.9918C73.0295 43.2778 72.7307 43.4961 72.3764 43.6466C72.0227 43.7972 71.6291 43.8725 71.1954 43.8725Z" fill="#1D1D1B"/>
<path d="M79.5999 43.797L77.8652 38.5281H78.8746L80.4228 43.2928H79.922L81.5295 38.5281H82.4272L83.9902 43.2928H83.5037L85.0893 38.5281H86.0166L84.2813 43.797H83.2494L81.8212 39.4991H82.0903L80.6396 43.797H79.5999Z" fill="#1D1D1B"/>
<path d="M87.8555 43.797V38.5281H88.828V43.797H87.8555Z" fill="#1D1D1B"/>
<path d="M91.29 43.797V38.5281H92.0903L95.3732 42.5852H94.9769V38.5281H95.9417V43.797H95.1415L91.8586 39.7399H92.2548V43.797H91.29Z" fill="#1D1D1B"/>
<path d="M98.3916 43.797V38.5281H100.679C101.248 38.5281 101.747 38.6385 102.175 38.8592C102.604 39.0801 102.938 39.3861 103.178 39.7775C103.417 40.169 103.536 40.6306 103.536 41.1625C103.536 41.6894 103.417 42.1511 103.178 42.5476C102.938 42.939 102.604 43.2451 102.175 43.4659C101.747 43.6867 101.248 43.797 100.679 43.797H98.3916ZM99.3635 42.9691H100.635C101.028 42.9691 101.367 42.8938 101.652 42.7433C101.941 42.5927 102.163 42.382 102.317 42.1109C102.477 41.84 102.557 41.5238 102.557 41.1625C102.557 40.7962 102.477 40.4801 102.317 40.2141C102.163 39.9432 101.941 39.7324 101.652 39.5818C101.367 39.4313 101.028 39.356 100.635 39.356H99.3635V42.9691Z" fill="#1D1D1B"/>
<path d="M108.07 43.8725C107.661 43.8725 107.284 43.8047 106.94 43.6692C106.596 43.5337 106.298 43.3456 106.043 43.1047C105.789 42.8588 105.592 42.5727 105.452 42.2466C105.313 41.9154 105.243 41.5541 105.243 41.1626C105.243 40.7712 105.313 40.4125 105.452 40.0863C105.592 39.7551 105.789 39.4691 106.043 39.2282C106.298 38.9823 106.596 38.7916 106.94 38.6561C107.284 38.5207 107.659 38.4529 108.063 38.4529C108.471 38.4529 108.845 38.5207 109.184 38.6561C109.528 38.7916 109.827 38.9823 110.081 39.2282C110.336 39.4691 110.532 39.7551 110.672 40.0863C110.812 40.4125 110.882 40.7712 110.882 41.1626C110.882 41.5541 110.812 41.9154 110.672 42.2466C110.532 42.5778 110.336 42.8638 110.081 43.1047C109.827 43.3456 109.528 43.5337 109.184 43.6692C108.845 43.8047 108.474 43.8725 108.07 43.8725ZM108.063 43.0143C108.327 43.0143 108.571 42.9692 108.795 42.8788C109.02 42.7885 109.214 42.6606 109.379 42.495C109.543 42.3244 109.67 42.1287 109.76 41.9078C109.855 41.682 109.902 41.4337 109.902 41.1626C109.902 40.8917 109.855 40.6458 109.76 40.425C109.67 40.1992 109.543 40.0035 109.379 39.8379C109.214 39.6673 109.02 39.5368 108.795 39.4465C108.571 39.3562 108.327 39.311 108.063 39.311C107.798 39.311 107.554 39.3562 107.33 39.4465C107.11 39.5368 106.916 39.6673 106.746 39.8379C106.582 40.0035 106.452 40.1992 106.358 40.425C106.267 40.6458 106.223 40.8917 106.223 41.1626C106.223 41.4286 106.267 41.6745 106.358 41.9003C106.452 42.1262 106.582 42.3244 106.746 42.495C106.911 42.6606 107.105 42.7885 107.33 42.8788C107.554 42.9692 107.798 43.0143 108.063 43.0143Z" fill="#1D1D1B"/>
<path d="M114.025 43.797L112.29 38.5281H113.299L114.848 43.2928H114.346L115.954 38.5281H116.851L118.414 43.2928H117.928L119.513 38.5281H120.441L118.706 43.797H117.674L116.246 39.4991H116.515L115.064 43.797H114.025Z" fill="#1D1D1B"/>
<path d="M124.763 43.797L127.118 38.5281H128.076L130.439 43.797H129.421L127.395 39.0474H127.784L125.765 43.797H124.763ZM125.847 42.5777L126.109 41.8099H128.936L129.198 42.5777H125.847Z" fill="#1D1D1B"/>
<path d="M132.151 43.797V38.5281H132.952L136.234 42.5852H135.838V38.5281H136.803V43.797H136.003L132.72 39.7399H133.116V43.797H132.151Z" fill="#1D1D1B"/>
<path d="M139.253 43.797V38.5281H141.541C142.109 38.5281 142.608 38.6385 143.037 38.8592C143.465 39.0801 143.799 39.3861 144.039 39.7775C144.278 40.169 144.398 40.6306 144.398 41.1625C144.398 41.6894 144.278 42.1511 144.039 42.5476C143.799 42.939 143.465 43.2451 143.037 43.4659C142.608 43.6867 142.109 43.797 141.541 43.797H139.253ZM140.225 42.9691H141.496C141.89 42.9691 142.229 42.8938 142.513 42.7433C142.802 42.5927 143.024 42.382 143.179 42.1109C143.338 41.84 143.418 41.5238 143.418 41.1625C143.418 40.7962 143.338 40.4801 143.179 40.2141C143.024 39.9432 142.802 39.7324 142.513 39.5818C142.229 39.4313 141.89 39.356 141.496 39.356H140.225V42.9691Z" fill="#1D1D1B"/>
<path d="M149.591 43.797V38.5281H151.879C152.448 38.5281 152.946 38.6385 153.375 38.8592C153.804 39.0801 154.138 39.3861 154.377 39.7775C154.616 40.169 154.736 40.6306 154.736 41.1625C154.736 41.6894 154.616 42.1511 154.377 42.5476C154.138 42.939 153.804 43.2451 153.375 43.4659C152.946 43.6867 152.448 43.797 151.879 43.797H149.591ZM150.563 42.9691H151.835C152.228 42.9691 152.567 42.8938 152.852 42.7433C153.141 42.5927 153.362 42.382 153.517 42.1109C153.677 41.84 153.757 41.5238 153.757 41.1625C153.757 40.7962 153.677 40.4801 153.517 40.2141C153.362 39.9432 153.141 39.7324 152.852 39.5818C152.567 39.4313 152.228 39.356 151.835 39.356H150.563V42.9691Z" fill="#1D1D1B"/>
<path d="M159.27 43.8725C158.861 43.8725 158.485 43.8047 158.141 43.6692C157.797 43.5337 157.498 43.3456 157.244 43.1047C156.989 42.8588 156.792 42.5727 156.652 42.2466C156.513 41.9154 156.443 41.5541 156.443 41.1626C156.443 40.7712 156.513 40.4125 156.652 40.0863C156.792 39.7551 156.989 39.4691 157.244 39.2282C157.498 38.9823 157.797 38.7916 158.141 38.6561C158.485 38.5207 158.859 38.4529 159.262 38.4529C159.671 38.4529 160.045 38.5207 160.384 38.6561C160.728 38.7916 161.027 38.9823 161.282 39.2282C161.536 39.4691 161.733 39.7551 161.872 40.0863C162.012 40.4125 162.082 40.7712 162.082 41.1626C162.082 41.5541 162.012 41.9154 161.872 42.2466C161.733 42.5778 161.536 42.8638 161.282 43.1047C161.027 43.3456 160.728 43.5337 160.384 43.6692C160.045 43.8047 159.674 43.8725 159.27 43.8725ZM159.262 43.0143C159.527 43.0143 159.771 42.9692 159.995 42.8788C160.22 42.7885 160.414 42.6606 160.579 42.495C160.743 42.3244 160.87 42.1287 160.96 41.9078C161.055 41.682 161.102 41.4337 161.102 41.1626C161.102 40.8917 161.055 40.6458 160.96 40.425C160.87 40.1992 160.743 40.0035 160.579 39.8379C160.414 39.6673 160.22 39.5368 159.995 39.4465C159.771 39.3562 159.527 39.311 159.262 39.311C158.998 39.311 158.754 39.3562 158.53 39.4465C158.31 39.5368 158.116 39.6673 157.946 39.8379C157.782 40.0035 157.652 40.1992 157.557 40.425C157.468 40.6458 157.423 40.8917 157.423 41.1626C157.423 41.4286 157.468 41.6745 157.557 41.9003C157.652 42.1262 157.782 42.3244 157.946 42.495C158.111 42.6606 158.305 42.7885 158.53 42.8788C158.754 42.9692 158.998 43.0143 159.262 43.0143Z" fill="#1D1D1B"/>
<path d="M166.612 43.8725C166.203 43.8725 165.826 43.8047 165.482 43.6692C165.138 43.5337 164.839 43.3456 164.585 43.1047C164.33 42.8588 164.134 42.5727 163.994 42.2466C163.855 41.9154 163.785 41.5541 163.785 41.1626C163.785 40.7712 163.855 40.4125 163.994 40.0863C164.134 39.7551 164.33 39.4691 164.585 39.2282C164.839 38.9823 165.138 38.7916 165.482 38.6561C165.826 38.5207 166.2 38.4529 166.604 38.4529C167.013 38.4529 167.387 38.5207 167.726 38.6561C168.07 38.7916 168.369 38.9823 168.623 39.2282C168.878 39.4691 169.074 39.7551 169.214 40.0863C169.354 40.4125 169.424 40.7712 169.424 41.1626C169.424 41.5541 169.354 41.9154 169.214 42.2466C169.074 42.5778 168.878 42.8638 168.623 43.1047C168.369 43.3456 168.07 43.5337 167.726 43.6692C167.387 43.8047 167.016 43.8725 166.612 43.8725ZM166.604 43.0143C166.869 43.0143 167.113 42.9692 167.337 42.8788C167.561 42.7885 167.756 42.6606 167.921 42.495C168.085 42.3244 168.212 42.1287 168.302 41.9078C168.396 41.682 168.444 41.4337 168.444 41.1626C168.444 40.8917 168.396 40.6458 168.302 40.425C168.212 40.1992 168.085 40.0035 167.921 39.8379C167.756 39.6673 167.561 39.5368 167.337 39.4465C167.113 39.3562 166.869 39.311 166.604 39.311C166.34 39.311 166.096 39.3562 165.872 39.4465C165.652 39.5368 165.457 39.6673 165.288 39.8379C165.124 40.0035 164.994 40.1992 164.899 40.425C164.809 40.6458 164.765 40.8917 164.765 41.1626C164.765 41.4286 164.809 41.6745 164.899 41.9003C164.994 42.1262 165.124 42.3244 165.288 42.495C165.453 42.6606 165.647 42.7885 165.872 42.8788C166.096 42.9692 166.34 43.0143 166.604 43.0143Z" fill="#1D1D1B"/>
<path d="M171.501 43.797V38.5281H173.655C174.119 38.5281 174.515 38.6033 174.844 38.7539C175.178 38.9044 175.434 39.1202 175.614 39.4012C175.793 39.6822 175.883 40.0159 175.883 40.4023C175.883 40.7887 175.793 41.1224 175.614 41.4034C175.434 41.6794 175.178 41.8927 174.844 42.0432C174.515 42.1887 174.119 42.2615 173.655 42.2615H172.039L172.473 41.8174V43.797H171.501ZM174.926 43.797L173.602 41.8851H174.642L175.973 43.797H174.926ZM172.473 41.9228L172.039 41.4561H173.61C174.038 41.4561 174.36 41.3633 174.574 41.1776C174.794 40.9919 174.903 40.7335 174.903 40.4023C174.903 40.0661 174.794 39.8076 174.574 39.627C174.36 39.4463 174.038 39.356 173.61 39.356H172.039L172.473 38.8743V41.9228Z" fill="#1D1D1B"/>
<path d="M182.753 43.8725C182.345 43.8725 181.953 43.8148 181.579 43.6993C181.206 43.5789 180.909 43.4258 180.689 43.2401L181.026 42.4799C181.235 42.6455 181.495 42.7835 181.804 42.894C182.113 43.0043 182.429 43.0595 182.753 43.0595C183.028 43.0595 183.25 43.0294 183.419 42.9692C183.588 42.909 183.713 42.8287 183.793 42.7283C183.873 42.6229 183.912 42.505 183.912 42.3746C183.912 42.214 183.856 42.086 183.741 41.9907C183.626 41.8903 183.477 41.8125 183.292 41.7573C183.113 41.6971 182.911 41.6419 182.686 41.5917C182.467 41.5416 182.245 41.4838 182.021 41.4186C181.801 41.3483 181.599 41.2605 181.415 41.1551C181.235 41.0447 181.088 40.8992 180.973 40.7186C180.859 40.5379 180.802 40.3071 180.802 40.026C180.802 39.74 180.877 39.4791 181.026 39.2432C181.181 39.0024 181.412 38.8117 181.721 38.6712C182.036 38.5256 182.432 38.4529 182.911 38.4529C183.224 38.4529 183.536 38.4931 183.845 38.5733C184.154 38.6536 184.423 38.769 184.653 38.9196L184.347 39.6798C184.112 39.5393 183.87 39.4364 183.621 39.3712C183.372 39.3009 183.132 39.2659 182.903 39.2659C182.634 39.2659 182.414 39.2984 182.245 39.3637C182.08 39.4289 181.958 39.5142 181.879 39.6196C181.804 39.725 181.767 39.8455 181.767 39.9809C181.767 40.1415 181.821 40.2719 181.931 40.3723C182.045 40.4676 182.192 40.5429 182.372 40.5982C182.556 40.6533 182.761 40.7086 182.986 40.7637C183.21 40.8139 183.432 40.8716 183.651 40.9368C183.876 41.0021 184.077 41.0874 184.257 41.1928C184.441 41.2982 184.588 41.4412 184.698 41.6218C184.813 41.8025 184.87 42.0308 184.87 42.3068C184.87 42.5878 184.793 42.8487 184.638 43.0897C184.489 43.3255 184.257 43.5161 183.943 43.6617C183.628 43.8022 183.232 43.8725 182.753 43.8725Z" fill="#1D1D1B"/>
<path d="M188.058 43.797V41.712L188.275 42.3142L186.001 38.5281H187.041L188.866 41.5766H188.282L190.122 38.5281H191.079L188.806 42.3142L189.03 41.712V43.797H188.058Z" fill="#1D1D1B"/>
<path d="M194.276 43.8725C193.867 43.8725 193.476 43.8148 193.102 43.6993C192.728 43.5789 192.431 43.4258 192.212 43.2401L192.548 42.4799C192.758 42.6455 193.017 42.7835 193.326 42.894C193.636 43.0043 193.952 43.0595 194.276 43.0595C194.55 43.0595 194.772 43.0294 194.942 42.9692C195.111 42.909 195.235 42.8287 195.315 42.7283C195.395 42.6229 195.435 42.505 195.435 42.3746C195.435 42.214 195.377 42.086 195.263 41.9907C195.148 41.8903 194.999 41.8125 194.815 41.7573C194.635 41.6971 194.433 41.6419 194.209 41.5917C193.989 41.5416 193.767 41.4838 193.543 41.4186C193.324 41.3483 193.122 41.2605 192.937 41.1551C192.758 41.0447 192.611 40.8992 192.496 40.7186C192.382 40.5379 192.324 40.3071 192.324 40.026C192.324 39.74 192.399 39.4791 192.548 39.2432C192.703 39.0024 192.935 38.8117 193.244 38.6712C193.558 38.5256 193.954 38.4529 194.433 38.4529C194.747 38.4529 195.059 38.4931 195.368 38.5733C195.677 38.6536 195.946 38.769 196.176 38.9196L195.868 39.6798C195.634 39.5393 195.393 39.4364 195.143 39.3712C194.894 39.3009 194.655 39.2659 194.425 39.2659C194.156 39.2659 193.937 39.2984 193.767 39.3637C193.603 39.4289 193.481 39.5142 193.401 39.6196C193.326 39.725 193.289 39.8455 193.289 39.9809C193.289 40.1415 193.344 40.2719 193.454 40.3723C193.568 40.4676 193.715 40.5429 193.894 40.5982C194.079 40.6533 194.283 40.7086 194.507 40.7637C194.732 40.8139 194.954 40.8716 195.173 40.9368C195.397 41.0021 195.599 41.0874 195.779 41.1928C195.963 41.2982 196.11 41.4412 196.22 41.6218C196.335 41.8025 196.392 42.0308 196.392 42.3068C196.392 42.5878 196.315 42.8487 196.16 43.0897C196.011 43.3255 195.779 43.5161 195.465 43.6617C195.151 43.8022 194.755 43.8725 194.276 43.8725Z" fill="#1D1D1B"/>
<path d="M199.392 43.797V39.356H197.657V38.5281H202.099V39.356H200.364V43.797H199.392Z" fill="#1D1D1B"/>
<path d="M204.773 40.7184H207.376V41.5238H204.773V40.7184ZM204.848 42.9766H207.802V43.797H203.876V38.5281H207.697V39.3485H204.848V42.9766Z" fill="#1D1D1B"/>
<path d="M209.933 43.797V38.5281H210.733L213.021 42.3744H212.602L214.853 38.5281H215.653L215.661 43.797H214.741L214.733 39.9808H214.928L213.014 43.1949H212.58L210.635 39.9808H210.86V43.797H209.933Z" fill="#1D1D1B"/>
<path d="M219.744 43.8725C219.335 43.8725 218.944 43.8148 218.571 43.6993C218.196 43.5789 217.9 43.4258 217.681 43.2401L218.017 42.4799C218.227 42.6455 218.485 42.7835 218.795 42.894C219.104 43.0043 219.421 43.0595 219.744 43.0595C220.019 43.0595 220.241 43.0294 220.41 42.9692C220.58 42.909 220.704 42.8287 220.784 42.7283C220.864 42.6229 220.904 42.505 220.904 42.3746C220.904 42.214 220.846 42.086 220.731 41.9907C220.617 41.8903 220.467 41.8125 220.283 41.7573C220.103 41.6971 219.901 41.6419 219.677 41.5917C219.458 41.5416 219.236 41.4838 219.011 41.4186C218.792 41.3483 218.591 41.2605 218.406 41.1551C218.227 41.0447 218.079 40.8992 217.965 40.7186C217.85 40.5379 217.792 40.3071 217.792 40.026C217.792 39.74 217.867 39.4791 218.017 39.2432C218.172 39.0024 218.403 38.8117 218.713 38.6712C219.026 38.5256 219.423 38.4529 219.901 38.4529C220.216 38.4529 220.527 38.4931 220.836 38.5733C221.146 38.6536 221.415 38.769 221.644 38.9196L221.337 39.6798C221.103 39.5393 220.861 39.4364 220.612 39.3712C220.363 39.3009 220.123 39.2659 219.894 39.2659C219.624 39.2659 219.406 39.2984 219.236 39.3637C219.071 39.4289 218.949 39.5142 218.869 39.6196C218.795 39.725 218.757 39.8455 218.757 39.9809C218.757 40.1415 218.812 40.2719 218.922 40.3723C219.037 40.4676 219.184 40.5429 219.363 40.5982C219.548 40.6533 219.752 40.7086 219.976 40.7637C220.201 40.8139 220.423 40.8716 220.642 40.9368C220.866 41.0021 221.068 41.0874 221.248 41.1928C221.432 41.2982 221.579 41.4412 221.689 41.6218C221.803 41.8025 221.861 42.0308 221.861 42.3068C221.861 42.5878 221.784 42.8487 221.629 43.0897C221.479 43.3255 221.247 43.5161 220.933 43.6617C220.62 43.8022 220.223 43.8725 219.744 43.8725Z" fill="#1D1D1B"/>
</g>
<defs>
<clipPath id="clip0_983_3064">
<rect width="222" height="44" fill="white"/>
</clipPath>
</defs>
</svg>
