<svg width="221" height="45" viewBox="0 0 221 45" fill="none" xmlns="http://www.w3.org/2000/svg">
<mask id="mask0_726_2057" style="mask-type:alpha" maskUnits="userSpaceOnUse" x="0" y="0" width="221" height="45">
<g clip-path="url(#clip0_726_2057)">
<path d="M55.7355 29.6834C55.461 29.6834 55.2383 29.4649 55.2383 29.1951V1.99247C55.2383 1.72278 55.461 1.50415 55.7355 1.50415H68.3543C70.9775 1.50415 73.2318 1.92013 75.1171 2.7521C77.0298 3.58405 78.5054 4.79174 79.5438 6.37515C80.5822 7.93172 81.1012 9.78351 81.1012 11.9305C81.1012 14.0507 80.5822 15.889 79.5438 17.4456C78.5054 18.9753 77.0298 20.1562 75.1171 20.9881C73.2318 21.7933 70.9775 22.1958 68.3543 22.1958H60.9987C60.5487 22.1958 60.3302 21.6555 60.6576 21.3523L62.5154 19.6312C62.8326 19.3374 63.3539 19.5582 63.3539 19.9864V29.1951C63.3539 29.4649 63.1311 29.6834 62.8567 29.6834H55.7355ZM73.2484 29.6834C73.0841 29.6834 72.9305 29.6038 72.8377 29.4705L66.3845 20.1817C66.1593 19.8576 66.3957 19.4181 66.7952 19.4181H74.2406C74.4044 19.4181 74.5578 19.4975 74.6505 19.6302L81.1408 28.9189C81.3672 29.2429 81.1311 29.6834 80.7308 29.6834H73.2484ZM63.3539 18.4925C63.3539 18.9315 62.81 19.1476 62.4992 18.832L60.5619 16.8644C60.2569 16.5545 60.4804 16.0366 60.9194 16.0366H67.8624C69.5565 16.0366 70.8134 15.6743 71.6333 14.9497C72.4803 14.2251 72.9039 13.2187 72.9039 11.9305C72.9039 10.6155 72.4803 9.59565 71.6333 8.87103C70.8134 8.14643 69.5565 7.78412 67.8624 7.78412H60.9194C60.4804 7.78412 60.2569 7.26624 60.5619 6.95635L62.4992 4.98878C62.81 4.67318 63.3539 4.88924 63.3539 5.32824V18.4925Z" fill="#D3001A"/>
<path d="M100.309 29.8124C98.072 29.8124 96.0082 29.4622 94.1176 28.762C92.2271 28.0617 90.5762 27.076 89.1651 25.8052C87.7805 24.5085 86.7021 23.004 85.9297 21.2922C85.1575 19.5804 84.7715 17.7 84.7715 15.651C84.7715 13.6021 85.1575 11.7217 85.9297 10.0099C86.7021 8.29806 87.7805 6.80673 89.1651 5.53583C90.5762 4.23902 92.2271 3.24045 94.1176 2.54017C96.0082 1.83989 98.072 1.48975 100.309 1.48975C102.572 1.48975 104.636 1.83989 106.5 2.54017C108.39 3.24045 110.028 4.23902 111.412 5.53583C112.797 6.80673 113.875 8.29806 114.648 10.0099C115.446 11.7217 115.846 13.6021 115.846 15.651C115.846 17.7 115.446 19.5934 114.648 21.3311C113.875 23.0429 112.797 24.5343 111.412 25.8052C110.028 27.076 108.39 28.0617 106.5 28.762C104.636 29.4622 102.572 29.8124 100.309 29.8124ZM100.309 23.432C101.374 23.432 102.359 23.2504 103.264 22.8873C104.196 22.5242 104.995 22.0055 105.661 21.3311C106.353 20.6308 106.886 19.8009 107.258 18.8412C107.658 17.8816 107.857 16.8182 107.857 15.651C107.857 14.458 107.658 13.3946 107.258 12.4609C106.886 11.5012 106.353 10.6842 105.661 10.0099C104.995 9.30959 104.196 8.77788 103.264 8.41477C102.359 8.05168 101.374 7.87012 100.309 7.87012C99.2436 7.87012 98.245 8.05168 97.3131 8.41477C96.4077 8.77788 95.6089 9.30959 94.9166 10.0099C94.2509 10.6842 93.7184 11.5012 93.3189 12.4609C92.946 13.3946 92.7598 14.458 92.7598 15.651C92.7598 16.8182 92.946 17.8816 93.3189 18.8412C93.7184 19.8009 94.2509 20.6308 94.9166 21.3311C95.6089 22.0055 96.4077 22.5242 97.3131 22.8873C98.245 23.2504 99.2436 23.432 100.309 23.432Z" fill="#D3001A"/>
<path d="M118.579 29.6834C118.305 29.6834 118.082 29.4649 118.082 29.1951V1.99247C118.082 1.72278 118.305 1.50415 118.579 1.50415H125.7C125.975 1.50415 126.197 1.72278 126.197 1.99247V22.8749C126.197 23.1446 126.42 23.3633 126.695 23.3633H139.479C139.753 23.3633 139.976 23.5819 139.976 23.8516V29.1951C139.976 29.4649 139.753 29.6834 139.479 29.6834H118.579Z" fill="#D3001A"/>
<path d="M143.013 29.669C142.738 29.669 142.516 29.4505 142.516 29.1807V1.97807C142.516 1.70837 142.738 1.48975 143.013 1.48975H150.134C150.408 1.48975 150.631 1.70837 150.631 1.97807V22.8605C150.631 23.1302 150.854 23.3489 151.128 23.3489H163.824C164.098 23.3489 164.321 23.5675 164.321 23.8372V29.1807C164.321 29.4505 164.098 29.669 163.824 29.669H143.013Z" fill="white"/>
<path d="M174.266 12.9019C174.266 12.6322 174.489 12.4136 174.763 12.4136H187.09C187.365 12.4136 187.587 12.6322 187.587 12.9019V17.8832C187.587 18.1529 187.365 18.3715 187.09 18.3715H174.763C174.489 18.3715 174.266 18.1529 174.266 17.8832V12.9019ZM174.84 23.036C174.84 23.3057 175.063 23.5243 175.337 23.5243H189.429C189.703 23.5243 189.926 23.7429 189.926 24.0126V29.1951C189.926 29.4649 189.703 29.6834 189.429 29.6834H167.304C167.029 29.6834 166.807 29.4649 166.807 29.1951V1.99247C166.807 1.72278 167.029 1.50415 167.304 1.50415H188.811C189.086 1.50415 189.309 1.72278 189.309 1.99247V7.17502C189.309 7.44472 189.086 7.66334 188.811 7.66334H175.337C175.063 7.66334 174.84 7.88198 174.84 8.15166V23.036Z" fill="white"/>
<path d="M192.909 29.669C192.635 29.669 192.412 29.4505 192.412 29.1807V1.97807C192.412 1.70837 192.635 1.48975 192.909 1.48975H205.528C208.151 1.48975 210.406 1.90573 212.291 2.7377C214.204 3.56965 215.679 4.77734 216.718 6.36075C217.756 7.91732 218.275 9.7691 218.275 11.9161C218.275 14.0363 217.756 15.8746 216.718 17.4312C215.679 18.9609 214.204 20.1418 212.291 20.9737C210.406 21.7789 208.151 22.1814 205.528 22.1814H198.173C197.723 22.1814 197.504 21.6411 197.831 21.3379L199.689 19.6167C200.006 19.323 200.527 19.5438 200.527 19.972V29.1807C200.527 29.4505 200.305 29.669 200.03 29.669H192.909ZM210.422 29.669C210.258 29.669 210.104 29.5894 210.012 29.4561L203.558 20.1673C203.333 19.8432 203.57 19.4037 203.969 19.4037H211.414C211.578 19.4037 211.732 19.4831 211.824 19.6158L218.315 28.9046C218.541 29.2286 218.305 29.669 217.905 29.669H210.422ZM200.527 18.4781C200.527 18.9171 199.984 19.1332 199.673 18.8176L197.736 16.85C197.43 16.5401 197.654 16.0222 198.093 16.0222H205.036C206.73 16.0222 207.987 15.6599 208.807 14.9353C209.654 14.2107 210.078 13.2043 210.078 11.9161C210.078 10.6011 209.654 9.58124 208.807 8.85663C207.987 8.13201 206.73 7.76972 205.036 7.76972H198.093C197.654 7.76972 197.43 7.25183 197.736 6.94192L199.673 4.97438C199.984 4.65878 200.527 4.87483 200.527 5.31383V18.4781Z" fill="white"/>
<path d="M0.0168647 12.4543C5.46733 15.5356 10.7943 18.5454 16.1188 21.5585C21.6199 24.6715 27.1189 27.7879 32.6175 30.9046C33.0782 31.1656 33.5323 31.4376 33.987 31.7087C35.8783 32.836 36.8595 34.4372 36.7996 36.6597C36.7437 38.7114 36.7879 40.766 36.7879 42.9232C36.3427 42.6864 35.9447 42.4859 35.5574 42.2671C25.016 36.3035 14.4749 30.3387 3.93581 24.3703C3.41782 24.0769 2.91402 23.7576 2.413 23.4362C0.872828 22.4493 0.0807038 21.0157 0.0317818 19.2433C-0.0296309 17.0265 0.0168647 14.8067 0.0168647 12.4543Z" fill="#D3001A"/>
<path d="M5.21907 1.48975C10.0981 4.24866 14.8748 6.94795 19.65 9.64963C23.9392 12.0766 28.2269 14.5053 32.5134 16.9365C32.9447 17.1811 33.3843 17.42 33.7813 17.7124C35.997 19.3434 36.1946 21.8508 34.2683 23.8065C33.1175 24.975 31.5834 25.5647 30.1538 26.4915C29.8751 25.2429 28.9896 24.6325 28.0258 24.0876C21.7488 20.5395 15.4733 16.9896 9.1998 13.436C8.65334 13.1262 8.12038 12.7926 7.59162 12.4539C6.12189 11.5126 5.29887 10.1526 5.23885 8.45591C5.15871 6.17543 5.21907 3.89053 5.21907 1.48975Z" fill="white"/>
<path d="M5.20703 42.9972V28.8305C5.6411 28.7783 5.90235 29.0771 6.20282 29.2449C8.515 30.535 10.8098 31.8554 13.1262 33.1382C13.5886 33.3941 13.7569 33.682 13.7614 34.214C13.7816 36.7484 12.8416 38.6992 10.4962 39.9493C8.74885 40.8806 7.06226 41.9224 5.20738 42.9969L5.20703 42.9972Z" fill="white"/>
<path d="M55.1875 42.9123V36.9778H57.7112C58.2544 36.9778 58.7188 37.0625 59.1043 37.2322C59.4959 37.4016 59.7967 37.6448 60.007 37.9613C60.2173 38.2777 60.3225 38.6537 60.3225 39.0888C60.3225 39.5239 60.2173 39.8999 60.007 40.2163C59.7967 40.5328 59.4959 40.7759 59.1043 40.9454C58.7188 41.1151 58.2544 41.1998 57.7112 41.1998H55.8184L56.3266 40.6827V42.9123H55.1875ZM56.3266 40.8013L55.8184 40.2671H57.6585C58.1609 40.2671 58.5378 40.1655 58.7889 39.9619C59.0459 39.7529 59.1744 39.4619 59.1744 39.0888C59.1744 38.7101 59.0459 38.4191 58.7889 38.2157C58.5378 38.012 58.1609 37.9105 57.6585 37.9105H55.8184L56.3266 37.3677V40.8013Z" fill="white"/>
<path d="M66.5876 42.9123L63.9062 36.9778H65.1418L67.534 42.3442H66.8242L69.2426 36.9778H70.3819L67.7092 42.9123H66.5876Z" fill="white"/>
<path d="M77.1815 42.9971C76.7144 42.9971 76.2791 42.9236 75.8759 42.7766C75.4786 42.624 75.1311 42.4121 74.8333 42.1408C74.5412 41.8639 74.3132 41.5389 74.1497 41.1659C73.9861 40.7928 73.9043 40.386 73.9043 39.9451C73.9043 39.5041 73.9861 39.0973 74.1497 38.7243C74.3132 38.3512 74.5439 38.0291 74.842 37.7579C75.1398 37.4808 75.4876 37.2688 75.8848 37.1221C76.2821 36.9695 76.7171 36.8931 77.1905 36.8931C77.6929 36.8931 78.1513 36.9778 78.5662 37.1475C78.9808 37.3113 79.3314 37.5572 79.6177 37.8848L78.8816 38.5548C78.6597 38.3229 78.4113 38.1505 78.1369 38.0374C77.8622 37.9188 77.5643 37.8595 77.2429 37.8595C76.9217 37.8595 76.6266 37.9105 76.3579 38.0121C76.0952 38.1139 75.8642 38.2579 75.6656 38.4445C75.4729 38.631 75.321 38.8515 75.2099 39.1059C75.1048 39.3601 75.0523 39.6399 75.0523 39.9451C75.0523 40.2503 75.1048 40.5301 75.2099 40.7845C75.321 41.0387 75.4729 41.2591 75.6656 41.4457C75.8642 41.6322 76.0952 41.7763 76.3579 41.8781C76.6266 41.9797 76.9217 42.0307 77.2429 42.0307C77.5643 42.0307 77.8622 41.974 78.1369 41.861C78.4113 41.7423 78.6597 41.5643 78.8816 41.327L79.6177 42.0053C79.3314 42.3273 78.9808 42.5732 78.5662 42.7427C78.1513 42.9123 77.6899 42.9971 77.1815 42.9971Z" fill="white"/>
<path d="M91.7816 42.9971C91.3028 42.9971 90.8442 42.9321 90.4059 42.802C89.9679 42.6665 89.6203 42.4941 89.3633 42.2849L89.7576 41.4286C90.0029 41.6151 90.3067 41.7707 90.6689 41.8949C91.0311 42.0192 91.402 42.0815 91.7816 42.0815C92.103 42.0815 92.3631 42.0475 92.5617 41.9797C92.7603 41.912 92.9062 41.8214 92.9997 41.7084C93.0932 41.5897 93.1399 41.4569 93.1399 41.3099C93.1399 41.1292 93.0728 40.9849 92.9383 40.8775C92.8041 40.7645 92.6288 40.6771 92.4125 40.6148C92.2022 40.5469 91.9658 40.4849 91.7028 40.4283C91.4457 40.3719 91.186 40.3067 90.923 40.2334C90.6659 40.1541 90.4293 40.0552 90.2132 39.9365C90.0029 39.8122 89.8306 39.6484 89.6961 39.4448C89.5619 39.2414 89.4945 38.9814 89.4945 38.6649C89.4945 38.3426 89.5823 38.0489 89.7576 37.7833C89.9385 37.512 90.2102 37.2972 90.5724 37.1389C90.9406 36.9751 91.405 36.8931 91.9658 36.8931C92.3337 36.8931 92.6989 36.9382 93.0611 37.0288C93.4233 37.1192 93.7388 37.2491 94.0075 37.4187L93.6483 38.275C93.3736 38.1168 93.0902 38.0008 92.7981 37.9273C92.506 37.8482 92.2256 37.8087 91.9569 37.8087C91.6414 37.8087 91.3844 37.8453 91.186 37.9188C90.9931 37.9923 90.8499 38.0885 90.7564 38.2071C90.6689 38.3258 90.6251 38.4616 90.6251 38.6142C90.6251 38.7948 90.6893 38.9418 90.8178 39.0549C90.9523 39.1623 91.1246 39.247 91.3349 39.3093C91.5509 39.3713 91.7905 39.4336 92.0533 39.4958C92.3163 39.5522 92.5761 39.6172 92.8331 39.6907C93.0962 39.7641 93.3328 39.8603 93.5431 39.979C93.7592 40.0977 93.9314 40.2588 94.06 40.4622C94.1945 40.6656 94.2616 40.9229 94.2616 41.2337C94.2616 41.5502 94.1711 41.8442 93.9899 42.1154C93.8146 42.3811 93.5431 42.5957 93.175 42.7598C92.807 42.918 92.3424 42.9971 91.7816 42.9971Z" fill="white"/>
<path d="M100.142 42.9123V40.564L100.396 41.2423L97.7324 36.9778H98.9505L101.088 40.4114H100.405L102.561 36.9778H103.682L101.018 41.2423L101.281 40.564V42.9123H100.142Z" fill="white"/>
<path d="M109.575 42.9971C109.096 42.9971 108.637 42.9321 108.199 42.802C107.761 42.6665 107.413 42.4941 107.156 42.2849L107.551 41.4286C107.796 41.6151 108.1 41.7707 108.462 41.8949C108.824 42.0192 109.195 42.0815 109.575 42.0815C109.896 42.0815 110.156 42.0475 110.355 41.9797C110.553 41.912 110.699 41.8214 110.793 41.7084C110.886 41.5897 110.933 41.4569 110.933 41.3099C110.933 41.1292 110.866 40.9849 110.732 40.8775C110.597 40.7645 110.422 40.6771 110.206 40.6148C109.995 40.5469 109.759 40.4849 109.496 40.4283C109.239 40.3719 108.979 40.3067 108.716 40.2334C108.459 40.1541 108.222 40.0552 108.006 39.9365C107.796 39.8122 107.624 39.6484 107.489 39.4448C107.355 39.2414 107.288 38.9814 107.288 38.6649C107.288 38.3426 107.375 38.0489 107.551 37.7833C107.732 37.512 108.003 37.2972 108.365 37.1389C108.734 36.9751 109.198 36.8931 109.759 36.8931C110.127 36.8931 110.492 36.9382 110.854 37.0288C111.216 37.1192 111.532 37.2491 111.8 37.4187L111.441 38.275C111.167 38.1168 110.883 38.0008 110.591 37.9273C110.299 37.8482 110.019 37.8087 109.75 37.8087C109.435 37.8087 109.178 37.8453 108.979 37.9188C108.786 37.9923 108.643 38.0885 108.55 38.2071C108.462 38.3258 108.418 38.4616 108.418 38.6142C108.418 38.7948 108.482 38.9418 108.611 39.0549C108.745 39.1623 108.918 39.247 109.128 39.3093C109.344 39.3713 109.584 39.4336 109.847 39.4958C110.109 39.5522 110.369 39.6172 110.626 39.6907C110.889 39.7641 111.126 39.8603 111.336 39.979C111.552 40.0977 111.725 40.2588 111.853 40.4622C111.987 40.6656 112.055 40.9229 112.055 41.2337C112.055 41.5502 111.964 41.8442 111.783 42.1154C111.608 42.3811 111.336 42.5957 110.968 42.7598C110.6 42.918 110.136 42.9971 109.575 42.9971Z" fill="white"/>
<path d="M117.718 42.9123V37.9105H115.686V36.9778H120.891V37.9105H118.858V42.9123H117.718Z" fill="white"/>
<path d="M126.171 39.4448H129.22V40.3521H126.171V39.4448ZM126.258 41.9882H129.72V42.9123H125.119V36.9778H129.597V37.9019H126.258V41.9882Z" fill="white"/>
<path d="M134.361 42.9123V36.9778H135.299L137.98 41.3099H137.49L140.127 36.9778H141.065L141.074 42.9123H139.996L139.987 38.6141H140.215L137.972 42.2341H137.463L135.185 38.6141H135.448V42.9123H134.361Z" fill="white"/>
<path d="M154.766 42.9971C154.287 42.9971 153.846 42.9236 153.443 42.7766C153.046 42.624 152.698 42.4121 152.401 42.1408C152.103 41.8639 151.872 41.5389 151.708 41.1659C151.545 40.7928 151.463 40.386 151.463 39.9451C151.463 39.5041 151.545 39.0973 151.708 38.7243C151.872 38.3512 152.103 38.0291 152.401 37.7579C152.704 37.4808 153.058 37.2688 153.461 37.1221C153.864 36.9695 154.305 36.8931 154.784 36.8931C155.304 36.8931 155.771 36.9751 156.186 37.1389C156.607 37.3028 156.96 37.543 157.246 37.8595L156.528 38.5377C156.288 38.306 156.028 38.1366 155.748 38.0291C155.473 37.9161 155.17 37.8595 154.837 37.8595C154.515 37.8595 154.217 37.9105 153.943 38.0121C153.668 38.1139 153.432 38.2579 153.233 38.4445C153.034 38.631 152.88 38.8515 152.769 39.1059C152.664 39.3601 152.611 39.6399 152.611 39.9451C152.611 40.2447 152.664 40.5215 152.769 40.7759C152.88 41.0301 153.034 41.2535 153.233 41.4457C153.432 41.6322 153.665 41.7763 153.934 41.8781C154.203 41.9797 154.501 42.0307 154.828 42.0307C155.132 42.0307 155.424 41.9853 155.704 41.8949C155.991 41.799 156.262 41.6405 156.519 41.4203L157.168 42.2426C156.846 42.4912 156.472 42.6806 156.046 42.8105C155.625 42.9348 155.199 42.9971 154.766 42.9971ZM156.09 42.0983V39.8772H157.168V42.2426L156.09 42.0983Z" fill="white"/>
<path d="M163.095 39.4448H166.144V40.3521H163.095V39.4448ZM163.182 41.9882H166.643V42.9123H162.043V36.9778H166.521V37.9019H163.182V41.9882Z" fill="white"/>
<path d="M171.287 42.9123V36.9778H173.811C174.354 36.9778 174.818 37.0625 175.204 37.2322C175.596 37.4016 175.896 37.6448 176.107 37.9613C176.317 38.2777 176.422 38.6537 176.422 39.0888C176.422 39.5239 176.317 39.8999 176.107 40.2163C175.896 40.5271 175.596 40.7674 175.204 40.9371C174.818 41.1009 174.354 41.1827 173.811 41.1827H171.918L172.426 40.6827V42.9123H171.287ZM175.3 42.9123L173.749 40.7588H174.968L176.527 42.9123H175.3ZM172.426 40.8013L171.918 40.2757H173.758C174.261 40.2757 174.637 40.1712 174.888 39.9619C175.146 39.7529 175.274 39.4619 175.274 39.0888C175.274 38.7101 175.146 38.4191 174.888 38.2157C174.637 38.012 174.261 37.9105 173.758 37.9105H171.918L172.426 37.3677V40.8013Z" fill="white"/>
<path d="M181.07 42.9123V36.9778H182.008L184.689 41.3099H184.199L186.836 36.9778H187.774L187.783 42.9123H186.705L186.696 38.6141H186.924L184.681 42.2341H184.172L181.894 38.6141H182.157V42.9123H181.07Z" fill="white"/>
<path d="M191.945 42.9123L194.706 36.9778H195.827L198.596 42.9123H197.405L195.03 37.5628H195.486L193.12 42.9123H191.945ZM193.216 41.5389L193.523 40.6741H196.835L197.142 41.5389H193.216Z" fill="white"/>
<path d="M202.75 42.9123V36.9778H203.688L207.535 41.5475H207.07V36.9778H208.201V42.9123H207.263L203.416 38.3429H203.881V42.9123H202.75Z" fill="white"/>
<path d="M214.726 42.9123V40.564L214.98 41.2423L212.316 36.9778H213.534L215.672 40.4114H214.989L217.145 36.9778H218.266L215.602 41.2423L215.865 40.564V42.9123H214.726Z" fill="white"/>
</g>
</mask>
<g mask="url(#mask0_726_2057)">
<rect x="-2.63086" y="-7.77466" width="234.155" height="61.1" fill="#D3001A"/>
</g>
<defs>
<clipPath id="clip0_726_2057">
<rect width="221" height="44.2" fill="white" transform="translate(0 0.0249023)"/>
</clipPath>
</defs>
</svg>
