<svg width="170" height="170" viewBox="0 0 170 170" fill="none" xmlns="http://www.w3.org/2000/svg">
<path d="M59.4287 130.971V59.0042C59.4287 56.1709 60.2787 53.4084 61.837 51.0709L81.1745 22.3125C84.2204 17.7084 91.7995 14.45 98.2454 16.8584C105.187 19.1959 109.791 26.9875 108.304 33.9292L104.62 57.0917C104.337 59.2167 104.904 61.1292 106.108 62.6167C107.312 63.9625 109.083 64.8125 110.995 64.8125H140.108C145.704 64.8125 150.52 67.0792 153.354 71.0459C156.045 74.8709 156.541 79.8292 154.77 84.8584L137.345 137.913C135.15 146.696 125.587 153.85 116.095 153.85H88.4704C83.7245 153.85 77.0662 152.221 74.0204 149.175L64.9537 142.163C61.4829 139.542 59.4287 135.363 59.4287 130.971Z" fill="#E8E8E8"/>
<path d="M36.9045 45.1917H29.6087C18.6295 45.1917 14.167 49.4416 14.167 59.925V131.183C14.167 141.667 18.6295 145.917 29.6087 145.917H36.9045C47.8837 145.917 52.3462 141.667 52.3462 131.183V59.925C52.3462 49.4416 47.8837 45.1917 36.9045 45.1917Z" fill="#E8E8E8"/>
</svg>
