<svg width="170" height="170" viewBox="0 0 170 170" fill="none" xmlns="http://www.w3.org/2000/svg">
<path d="M150.521 130.829L138.834 133.592C136.213 134.229 134.159 136.212 133.592 138.833L131.113 149.246C129.767 154.912 122.542 156.683 118.788 152.221L97.6086 127.854C95.9086 125.871 96.8294 122.754 99.3794 122.117C111.917 119.071 123.179 112.058 131.467 102.071C132.813 100.442 135.221 100.229 136.709 101.717L152.434 117.442C157.817 122.825 155.904 129.554 150.521 130.829Z" fill="#E8E8E8"/>
<path d="M19.1254 130.829L30.8129 133.592C33.4338 134.229 35.4879 136.212 36.0546 138.833L38.5338 149.246C39.8796 154.912 47.1046 156.683 50.8587 152.221L72.0379 127.854C73.7379 125.871 72.8171 122.754 70.2671 122.117C57.7296 119.071 46.4671 112.058 38.1796 102.071C36.8338 100.442 34.4254 100.229 32.9379 101.717L17.2129 117.442C11.8296 122.825 13.7421 129.554 19.1254 130.829Z" fill="#E8E8E8"/>
<path d="M85.0003 14.1667C57.5878 14.1667 35.417 36.3376 35.417 63.7501C35.417 74.0209 38.4628 83.4418 43.7045 91.3043C51.3545 102.638 63.467 110.642 77.5628 112.696C79.9712 113.121 82.4503 113.333 85.0003 113.333C87.5503 113.333 90.0295 113.121 92.4378 112.696C106.534 110.642 118.646 102.638 126.296 91.3043C131.538 83.4418 134.584 74.0209 134.584 63.7501C134.584 36.3376 112.413 14.1667 85.0003 14.1667ZM106.675 62.1917L100.796 68.0709C99.8045 69.0626 99.2378 70.9751 99.592 72.3918L101.292 79.6876C102.638 85.4251 99.592 87.6917 94.492 84.6459L87.4087 80.4667C86.1337 79.6876 84.0087 79.6876 82.7337 80.4667L75.6503 84.6459C70.5503 87.6209 67.5045 85.4251 68.8503 79.6876L70.5503 72.3918C70.8337 71.0459 70.3378 69.0626 69.3462 68.0709L63.3253 62.1917C59.8545 58.7209 60.9878 55.2501 65.8045 54.4709L73.3837 53.1959C74.6587 52.9834 76.1462 51.8501 76.7128 50.7167L80.892 42.3584C83.1587 37.8251 86.842 37.8251 89.1087 42.3584L93.2878 50.7167C93.8545 51.8501 95.342 52.9834 96.6878 53.1959L104.267 54.4709C109.013 55.2501 110.146 58.7209 106.675 62.1917Z" fill="#E8E8E8"/>
</svg>
