<svg width="170" height="170" viewBox="0 0 170 170" fill="none" xmlns="http://www.w3.org/2000/svg">
<path d="M40.6586 113.333C41.4378 109.863 40.0211 104.904 37.5419 102.425L20.3294 85.2126C14.9461 79.8292 12.8211 74.0917 14.3794 69.1334C16.0086 64.1751 21.0378 60.7751 28.5461 59.5001L50.6461 55.8167C53.8336 55.2501 57.7294 52.4167 59.2169 49.5126L71.4003 25.0751C74.9419 18.0626 79.7586 14.1667 85.0003 14.1667C90.2419 14.1667 95.0586 18.0626 98.6003 25.0751L110.784 49.5126C111.704 51.3542 113.617 53.1251 115.671 54.3292L39.3836 130.617C38.3919 131.608 36.6919 130.688 36.9753 129.271L40.6586 113.333Z" fill="#E8E8E8"/>
<path d="M132.458 102.425C129.908 104.975 128.491 109.862 129.341 113.333L134.229 134.654C136.283 143.508 135.008 150.167 130.616 153.354C128.846 154.629 126.721 155.267 124.241 155.267C120.629 155.267 116.379 153.921 111.704 151.158L90.9497 138.833C87.6913 136.921 82.308 136.921 79.0497 138.833L58.2955 151.158C50.433 155.762 43.7038 156.542 39.383 153.354C37.7538 152.15 36.5497 150.521 35.7705 148.396L121.904 62.2624C125.162 59.0041 129.766 57.5166 134.229 58.2958L141.383 59.4999C148.891 60.7749 153.921 64.1749 155.55 69.1333C157.108 74.0916 154.983 79.8291 149.6 85.2124L132.458 102.425Z" fill="#E8E8E8"/>
</svg>
