<svg width="170" height="170" viewBox="0 0 170 170" fill="none" xmlns="http://www.w3.org/2000/svg">
<path d="M149.388 49.4418C143.367 42.7834 133.309 39.4543 118.717 39.4543H117.017V39.1709C117.017 27.2709 117.017 12.5376 90.3837 12.5376H79.617C52.9837 12.5376 52.9837 27.3418 52.9837 39.1709V39.5251H51.2837C36.6212 39.5251 26.6337 42.8543 20.6128 49.5126C13.6003 57.3043 13.8128 67.7876 14.5212 74.9418L14.592 75.4376L15.2778 82.6384C15.2921 82.7882 15.3706 82.9219 15.496 83.0051C16.4542 83.6405 20.6975 86.4402 22.9503 87.6918C23.942 88.3293 25.0045 88.8959 26.067 89.4626C38.1795 96.1209 51.4962 100.583 65.0254 102.779C65.6629 109.438 68.567 117.229 84.0795 117.229C99.592 117.229 102.638 109.508 103.134 102.638C117.584 100.3 131.538 95.2709 144.146 87.9043C144.571 87.6918 144.855 87.4793 145.209 87.2668C148.403 85.4613 151.734 83.1792 154.666 81.0213C154.779 80.9387 154.851 80.813 154.866 80.6745L155.125 78.3418L155.48 75.0126C155.55 74.5876 155.55 74.2334 155.621 73.7376C156.188 66.5834 156.046 56.8084 149.388 49.4418ZM92.7212 97.9626C92.7212 105.471 92.7212 106.604 84.0087 106.604C75.2962 106.604 75.2962 105.258 75.2962 98.0334V89.1084H92.7212V97.9626ZM63.1128 39.4543V39.1709C63.1128 27.1293 63.1128 22.6668 79.617 22.6668H90.3837C106.888 22.6668 106.888 27.2001 106.888 39.1709V39.5251H63.1128V39.4543Z" fill="#E8E8E8"/>
<path d="M152.773 94.906C153.124 94.7331 153.521 95.0163 153.486 95.4063L150.45 128.846C148.963 143.012 143.154 157.462 111.988 157.462H58.0127C26.846 157.462 21.0377 143.012 19.5502 128.917L16.6545 97.0638C16.6194 96.6783 17.006 96.3948 17.3566 96.5587C21.8584 98.6634 44.6767 109.192 55.9836 111.718C56.1494 111.755 56.2782 111.872 56.3398 112.031C60.2975 122.208 69.8894 127.642 84.0794 127.642C98.1288 127.642 107.859 121.999 111.819 111.818C111.881 111.66 112.009 111.543 112.175 111.506C124.137 108.84 148.115 97.1987 152.773 94.906Z" fill="#E8E8E8"/>
</svg>
